<?xml version="1.0" encoding="UTF-8" standalone="no"?>
<!-- Created with Inkscape (http://www.inkscape.org/) -->
<svg
   xmlns:dc="http://purl.org/dc/elements/1.1/"
   xmlns:cc="http://creativecommons.org/ns#"
   xmlns:rdf="http://www.w3.org/1999/02/22-rdf-syntax-ns#"
   xmlns:svg="http://www.w3.org/2000/svg"
   xmlns="http://www.w3.org/2000/svg"
   xmlns:xlink="http://www.w3.org/1999/xlink"
   xmlns:sodipodi="http://sodipodi.sourceforge.net/DTD/sodipodi-0.dtd"
   xmlns:inkscape="http://www.inkscape.org/namespaces/inkscape"
   viewBox="0,0,600,660"
   width="600"
   height="660"
   id="svg2"
   sodipodi:version="0.32"
   inkscape:version="0.46"
   version="1.0"
   sodipodi:docname="blas_gcl_r.svg"
   inkscape:output_extension="org.inkscape.output.svg.inkscape">
  <defs
     id="defs4">
    <linearGradient
       inkscape:collect="always"
       id="linearGradient3219">
      <stop
         offset="0"
         id="stop1001"
         style="stop-color:#ffffff;stop-opacity:0.31" />
      <stop
         id="stop1002"
         offset="0.2"
         style="stop-color:#ffffff;stop-opacity:0.25" />
      <stop
         offset="0.60000002"
         id="stop1003"
         style="stop-color:#6b6b6b;stop-opacity:0.125" />
      <stop
         offset="1"
         id="stop1004"
         style="stop-color:#000000;stop-opacity:0.125" />
    </linearGradient>
    <radialGradient
       inkscape:collect="always"
       xlink:href="#linearGradient3219"
       id="radialGradient3225"
       cx="222"
       cy="200"
       fx="222"
       fy="200"
       r="300"
       gradientTransform="matrix(1.3582674,0,0,1.3590925,-79.535371,-51.854497)"
       gradientUnits="userSpaceOnUse" />
  </defs>
  <g
     inkscape:label="Calque 1"
     inkscape:groupmode="layer"
     id="layer1">
    
    <!-- Begin eagle -->
    <g class="eagle">
    <path
       id="rect10"
       style="fill:#ffffff;fill-opacity:1;stroke:none;stroke-width:3;stroke-miterlimit:4;stroke-dasharray:none"
       d="M 1.5,1.5 L 598.5,1.5 L 598.5,260 C 598.5,546.7 300,658.392 300,658.392 C 300,658.392 1.5,546.7 1.5,260 L 1.5,1.5 z"
       sodipodi:nodetypes="cccccc" />
    <path
       sodipodi:nodetypes="ccsssssssssscccsssssssssscccssccscccscssccccccc"
       d="M 245.01784,198.24416 L 240.74886,195.55211 C 230.39295,195.72636 215.5528,194.65306 204.68721,191.61756 C 197.52635,189.61704 188.57886,185.03624 181.85401,179.53613 C 176.06239,174.79929 170.22586,168.512 165.75001,161.42915 C 161.51215,154.72291 158.49642,145.84241 156.80032,137.75867 C 155.48391,131.48457 154.39673,121.19952 154.62141,120.68182 C 154.84609,120.16412 155.51433,118.44359 157.61608,117.68955 C 161.46642,116.30817 168.11634,112.8131 173.11419,107.15603 C 177.95369,101.67819 181.20733,91.354148 179.29772,80.66493 C 176.80976,66.738326 165.13531,56.045707 145.66414,55.266374 C 135.58587,54.862992 120.51594,54.120731 107.94183,53.883391 C 105.86976,53.844281 73.848862,53.291064 48.063759,43.415381 C 65.422104,88.570029 105.08302,79.688076 111.33135,82.278648 C 57.009234,97.835914 31.700432,98.93578 26.401107,97.602662 C 26.484036,98.96302 33.035244,105.90524 40.528436,111.17393 C 46.590011,115.43602 54.989535,118.33715 58.980168,118.93203 C 67.348856,120.17955 76.557024,119.70616 86.494506,119.12021 C 92.05441,118.79238 109.6375,113.78091 108.18578,115.82581 C 107.0467,117.43034 99.23573,122.43632 89.67759,129.84507 C 81.279876,136.35434 71.54921,145.42797 61.950379,152.70373 C 44.783003,165.71631 26.971921,173.54094 27.973888,174.42981 C 33.640432,179.45677 49.402343,183.03048 62.489639,179.47769 C 68.107761,177.95254 71.604349,176.12198 77.742803,172.21202 C 82.48606,169.19074 89.084876,163.30842 92.997416,160.05412 C 100.42257,153.87818 107.39775,148.76787 111.78071,145.23135 C 111.76674,148.00955 109.44583,150.98815 106.613,155.7925 C 71.113056,216.88147 30.670088,278.79878 30.670088,278.79878 C 64.662794,280.52615 83.866755,248.66778 100.21514,229.02976 C 121.02273,204.03523 116.27043,209.26611 120.76804,203.62827 C 125.26565,197.99044 119.69315,207.1865 110.20793,228.47803 C 103.36052,245.15355 97.583951,268.56919 93.452549,292.89613 C 90.267201,311.05096 86.011074,324.66405 83.435331,333.84252 C 81.218661,341.74147 70.084012,375.94912 56.508653,408.84581 C 72.548481,407.65426 84.060211,399.06674 92.682645,391.03683 C 99.086074,382.29507 104.40223,373.40927 108.41047,364.11626 C 115.71495,348.43904 121.0045,333.43054 126.3288,319.09515 C 137.48324,289.06241 145.26937,262.55324 153.12242,243.80204 C 153.03922,256.79928 153.01209,269.81534 152.87283,282.79377 C 152.72922,296.68249 150.49652,334.7597 148.43766,347.81355 C 143.43161,379.55358 142.22272,398.39577 138.06864,415.67949 C 190.86002,408.10959 204.44485,310.92071 203.22677,270.92969 C 207.57064,300.83993 211.91452,329.88772 216.25839,355.41885 C 226.80864,349.99111 232.76793,344.4072 235.35646,333.46823 C 237.67819,303.22002 240.44928,277.21113 242.77101,251.67113 L 264.56528,212.73985 L 245.01784,198.24416 z"
       style="opacity:1;fill:#000000;fill-opacity:1;fill-rule:nonzero;stroke:#808080;stroke-width:3;stroke-linecap:butt;stroke-linejoin:miter;marker:none;marker-start:none;marker-mid:none;marker-end:none;stroke-miterlimit:4;stroke-dasharray:none;stroke-dashoffset:0;stroke-opacity:1;visibility:visible;display:inline;overflow:visible;enable-background:accumulate"
       id="path100" />
    <g
       id="g100"
       style="stroke-linecap:round;stroke-linejoin:round;stroke:#808080"
       transform="translate(0,-2)">
      <path
         id="path101"
         style="fill:#000000;fill-opacity:1;stroke:#808080;stroke-width:3;stroke-linecap:round;stroke-linejoin:round;stroke-miterlimit:4;stroke-dasharray:none"
         d="M 132.72077,72.781636 C 112.16426,70.076042 87.085286,69.107182 75.843526,62.824494"
         sodipodi:nodetypes="cc" />
      <path
         sodipodi:nodetypes="cc"
         d="M 55.507511,109.97449 C 74.429215,111.64263 94.639471,107.96653 115.24451,102.65306"
         style="fill:#000000;fill-opacity:1;stroke:#808080;stroke-width:3;stroke-linecap:round;stroke-linejoin:round;stroke-miterlimit:4;stroke-dasharray:none"
         id="path102" />
      <path
         sodipodi:nodetypes="cc"
         d="M 110.16051,131.06021 C 69.741732,168.64094 62.685691,171.18203 58.049513,171.18163"
         style="fill:#000000;fill-opacity:1;stroke:#808080;stroke-width:3;stroke-linecap:round;stroke-linejoin:round;stroke-miterlimit:4;stroke-dasharray:none"
         id="path103" />
      <path
         sodipodi:nodetypes="cc"
         d="M 56.14301,261.38163 C 71.408003,240.42865 79.651224,232.83655 119.69301,164.73878"
         style="fill:#000000;fill-opacity:1;stroke:#808080;stroke-width:3;stroke-linecap:round;stroke-linejoin:round;stroke-miterlimit:4;stroke-dasharray:none"
         id="path104" />
      <path
         sodipodi:nodetypes="cc"
         d="M 90.142264,365.05307 C 106.29772,327.67151 121.13039,267.94615 136.53376,217.39449"
         style="fill:#000000;fill-opacity:1;stroke:#808080;stroke-width:3;stroke-linecap:round;stroke-linejoin:round;stroke-miterlimit:4;stroke-dasharray:none"
         id="path105" />
      <path
         sodipodi:nodetypes="cc"
         d="M 162.58926,373.25307 C 166.74986,356.07535 172.67501,299.07999 178.47676,241.81878"
         style="fill:#000000;fill-opacity:1;stroke:#808080;stroke-width:3;stroke-linecap:round;stroke-linejoin:round;stroke-miterlimit:4;stroke-dasharray:none"
         id="path106" />
      <path
         sodipodi:nodetypes="cc"
         d="M 219.46651,329.03163 L 219.46651,259.33163"
         style="fill:#000000;fill-opacity:1;stroke:#808080;stroke-width:3;stroke-linecap:round;stroke-linejoin:round;stroke-miterlimit:4;stroke-dasharray:none"
         id="path107" />
    </g>
    <path
       id="path150"
       style="fill:#000000;fill-opacity:1;stroke:#808080;stroke-width:3;stroke-linecap:round;stroke-linejoin:round;stroke-miterlimit:4;stroke-dasharray:none"
       d="M 130.17876,130.52449 C 118.66841,135.54001 103.47066,140.40105 127.95451,146.92449 C 111.92223,154.91331 108.27929,162.5842 132.49314,163.14197 C 101.4091,176.98927 120.40736,182.70126 138.71772,178.92655 C 104.04376,202.66453 133.36465,202.57863 147.65501,195.83163 C 123.06573,219.08567 142.75133,224.47563 161.31826,210.47449 C 136.94453,245.50757 172.91524,242.34219 179.11226,221.89592 C 170.70501,244.18725 193.47235,266.37924 203.89676,227.75307 C 201.72815,270.28151 227.41754,257.92354 231.85876,233.31735"
       sodipodi:nodetypes="ccccccccc" />
    <g
       id="g150"
       style="stroke-linecap:round;stroke-linejoin:round;stroke:#808080"
       transform="translate(0,-2)">
      <path
         sodipodi:nodetypes="cc"
         d="M 129.54326,141.60306 L 125.09476,141.60306"
         style="fill:#000000;fill-opacity:1;stroke:#808080;stroke-width:3;stroke-linecap:round;stroke-linejoin:round;stroke-miterlimit:4;stroke-dasharray:none"
         id="path151" />
      <path
         sodipodi:nodetypes="cc"
         d="M 132.08526,156.53878 L 123.18826,158.88163"
         style="fill:#000000;fill-opacity:1;stroke:#808080;stroke-width:3;stroke-linecap:round;stroke-linejoin:round;stroke-miterlimit:4;stroke-dasharray:none"
         id="path152" />
      <path
         sodipodi:nodetypes="cc"
         d="M 137.32944,173.23163 L 127.16144,175.57449"
         style="fill:#000000;fill-opacity:1;stroke:#808080;stroke-width:3;stroke-linecap:round;stroke-linejoin:round;stroke-miterlimit:4;stroke-dasharray:none"
         id="path153" />
      <path
         sodipodi:nodetypes="cc"
         d="M 144.00219,188.81735 L 135.42294,193.79592"
         style="fill:#000000;fill-opacity:1;stroke:#808080;stroke-width:3;stroke-linecap:round;stroke-linejoin:round;stroke-miterlimit:4;stroke-dasharray:none"
         id="path154" />
      <path
         sodipodi:nodetypes="cc"
         d="M 155.3598,202.64592 L 145.50955,212.60307"
         style="fill:#000000;fill-opacity:1;stroke:#808080;stroke-width:3;stroke-linecap:round;stroke-linejoin:round;stroke-miterlimit:4;stroke-dasharray:none"
         id="path155" />
      <path
         sodipodi:nodetypes="cc"
         d="M 171.2473,215.8245 L 163.6213,228.41736"
         style="fill:#000000;fill-opacity:1;stroke:#808080;stroke-width:3;stroke-linecap:round;stroke-linejoin:round;stroke-miterlimit:4;stroke-dasharray:none"
         id="path156" />
      <path
         sodipodi:nodetypes="cc"
         d="M 193.41101,224.48163 L 187.37376,241.17449"
         style="fill:#000000;fill-opacity:1;stroke:#808080;stroke-width:3;stroke-linecap:round;stroke-linejoin:round;stroke-miterlimit:4;stroke-dasharray:none"
         id="path157" />
      <path
         sodipodi:nodetypes="cc"
         d="M 218.19551,233.26735 L 215.01801,246.73878"
         style="fill:#000000;fill-opacity:1;stroke:#808080;stroke-width:3;stroke-linecap:round;stroke-linejoin:round;stroke-miterlimit:4;stroke-dasharray:none"
         id="path158" />
    </g>
    <path
       sodipodi:nodetypes="cccccccccccc"
       d="M 243.93326,208.71735 C 244.89398,214.4804 245.0604,213.65589 245.83976,218.96735 C 182.96266,214.3043 136.3793,190.44195 140.02901,107.38878 C 133.60253,110.35149 127.07393,113.50245 128.90776,101.23878 C 120.69593,92.304816 126.72667,91.246933 135.26276,91.574493 C 130.57655,86.343142 135.57419,74.021561 144.15976,84.838779 C 154.38994,78.826876 163.55834,85.185324 153.37451,93.624493 C 163.52578,93.687295 169.21756,96.033498 164.17801,103.87449 L 159.41176,104.16735 C 162.21801,112.28865 157.99559,112.63632 152.42126,111.48878 L 149.24376,108.85306 C 143.6731,177.2215 181.8534,204.25839 243.93326,208.71735 z"
       style="fill:#000000;fill-opacity:1;stroke:#808080;stroke-width:3;stroke-miterlimit:4;stroke-dasharray:none"
       id="path180" />
    <path
       id="path200"
       style="opacity:1;fill:#000000;fill-opacity:1;fill-rule:nonzero;stroke:#808080;stroke-width:3;stroke-linecap:butt;stroke-linejoin:miter;marker:none;marker-start:none;marker-mid:none;marker-end:none;stroke-miterlimit:4;stroke-dasharray:none;stroke-dashoffset:0;stroke-opacity:1;visibility:visible;display:inline;overflow:visible;enable-background:accumulate"
       d="M 354.98216,198.24416 L 359.25114,195.55211 C 369.60705,195.72636 384.4472,194.65306 395.31279,191.61756 C 402.47365,189.61704 411.42114,185.03624 418.14599,179.53613 C 423.93761,174.79929 429.77414,168.512 434.24999,161.42915 C 438.48785,154.72291 441.50358,145.84241 443.19968,137.75867 C 444.51609,131.48457 445.60327,121.19952 445.37859,120.68182 C 445.15391,120.16412 444.48567,118.44359 442.38392,117.68955 C 438.53358,116.30817 431.88366,112.8131 426.88581,107.15603 C 422.04631,101.67819 418.79267,91.354148 420.70228,80.66493 C 423.19024,66.738326 434.86469,56.045707 454.33586,55.266374 C 464.41413,54.862992 479.48406,54.120731 492.05817,53.883391 C 494.13024,53.844281 526.15114,53.291064 551.93624,43.415381 C 534.5779,88.570029 494.91698,79.688076 488.66865,82.278648 C 542.99077,97.835914 568.29957,98.93578 573.59889,97.602662 C 573.51596,98.96302 566.96476,105.90524 559.47156,111.17393 C 553.40999,115.43602 545.01046,118.33715 541.01983,118.93203 C 532.65114,120.17955 523.44298,119.70616 513.50549,119.12021 C 507.94559,118.79238 490.3625,113.78091 491.81422,115.82581 C 492.9533,117.43034 500.76427,122.43632 510.32241,129.84507 C 518.72012,136.35434 528.45079,145.42797 538.04962,152.70373 C 555.217,165.71631 573.02808,173.54094 572.02611,174.42981 C 566.35957,179.45677 550.59766,183.03048 537.51036,179.47769 C 531.89224,177.95254 528.39565,176.12198 522.2572,172.21202 C 517.51394,169.19074 510.91512,163.30842 507.00258,160.05412 C 499.57743,153.87818 492.60225,148.76787 488.21929,145.23135 C 488.23326,148.00955 490.55417,150.98815 493.387,155.7925 C 528.88694,216.88147 569.32991,278.79878 569.32991,278.79878 C 535.33721,280.52615 516.13324,248.66778 499.78486,229.02976 C 478.97727,204.03523 483.72957,209.26611 479.23196,203.62827 C 474.73435,197.99044 480.30685,207.1865 489.79207,228.47803 C 496.63948,245.15355 502.41605,268.56919 506.54745,292.89613 C 509.7328,311.05096 513.98893,324.66405 516.56467,333.84252 C 518.78134,341.74147 529.91599,375.94912 543.49135,408.84581 C 527.45152,407.65426 515.93979,399.06674 507.31736,391.03683 C 500.91393,382.29507 495.59777,373.40927 491.58953,364.11626 C 484.28505,348.43904 478.9955,333.43054 473.6712,319.09515 C 462.51676,289.06241 454.73063,262.55324 446.87758,243.80204 C 446.96078,256.79928 446.98791,269.81534 447.12717,282.79377 C 447.27078,296.68249 449.50348,334.7597 451.56234,347.81355 C 456.56839,379.55358 457.77728,398.39577 461.93136,415.67949 C 409.13998,408.10959 395.55515,310.92071 396.77323,270.92969 C 392.42936,300.83993 388.08548,329.88772 383.74161,355.41885 C 373.19136,349.99111 367.23207,344.4072 364.64354,333.46823 C 362.32181,303.22002 359.55072,277.21113 357.22899,251.67113 L 335.43472,212.73985 L 354.98216,198.24416 z"
       sodipodi:nodetypes="ccsssssssssscccsssssssssscccssccscccscssccccccc" />
    <g
       id="g200"
       style="stroke-linecap:round;stroke-linejoin:round;stroke:#808080"
       transform="translate(0,-2)">
      <path
         sodipodi:nodetypes="cc"
         d="M 467.27923,72.781636 C 487.83574,70.076042 512.91471,69.107182 524.15647,62.824494"
         style="fill:#000000;fill-opacity:1;stroke:#808080;stroke-width:3;stroke-linecap:round;stroke-linejoin:round;stroke-miterlimit:4;stroke-dasharray:none"
         id="path201" />
      <path
         id="path202"
         style="fill:#000000;fill-opacity:1;stroke:#808080;stroke-width:3;stroke-linecap:round;stroke-linejoin:round;stroke-miterlimit:4;stroke-dasharray:none"
         d="M 544.49249,109.97449 C 525.57079,111.64263 505.36053,107.96653 484.75549,102.65306"
         sodipodi:nodetypes="cc" />
      <path
         id="path203"
         style="fill:#000000;fill-opacity:1;stroke:#808080;stroke-width:3;stroke-linecap:round;stroke-linejoin:round;stroke-miterlimit:4;stroke-dasharray:none"
         d="M 489.83949,131.06021 C 530.25827,168.64094 537.31431,171.18203 541.95049,171.18163"
         sodipodi:nodetypes="cc" />
      <path
         id="path204"
         style="fill:#000000;fill-opacity:1;stroke:#808080;stroke-width:3;stroke-linecap:round;stroke-linejoin:round;stroke-miterlimit:4;stroke-dasharray:none"
         d="M 543.85699,261.38163 C 528.592,240.42865 520.34878,232.83655 480.30699,164.73878"
         sodipodi:nodetypes="cc" />
      <path
         id="path205"
         style="fill:#000000;fill-opacity:1;stroke:#808080;stroke-width:3;stroke-linecap:round;stroke-linejoin:round;stroke-miterlimit:4;stroke-dasharray:none"
         d="M 509.85774,365.05307 C 493.70228,327.67151 478.86961,267.94615 463.46624,217.39449"
         sodipodi:nodetypes="cc" />
      <path
         id="path206"
         style="fill:#000000;fill-opacity:1;stroke:#808080;stroke-width:3;stroke-linecap:round;stroke-linejoin:round;stroke-miterlimit:4;stroke-dasharray:none"
         d="M 437.41074,373.25307 C 433.25014,356.07535 427.32499,299.07999 421.52324,241.81878"
         sodipodi:nodetypes="cc" />
      <path
         id="path207"
         style="fill:#000000;fill-opacity:1;stroke:#808080;stroke-width:3;stroke-linecap:round;stroke-linejoin:round;stroke-miterlimit:4;stroke-dasharray:none"
         d="M 380.53349,329.03163 L 380.53349,259.33163"
         sodipodi:nodetypes="cc" />
    </g>
    <path
       sodipodi:nodetypes="ccccccccc"
       d="M 469.82124,130.52449 C 481.33159,135.54001 496.52934,140.40105 472.04549,146.92449 C 488.07777,154.91331 491.72071,162.5842 467.50686,163.14197 C 498.5909,176.98927 479.59264,182.70126 461.28228,178.92655 C 495.95624,202.66453 466.63535,202.57863 452.34499,195.83163 C 476.93427,219.08567 457.24867,224.47563 438.68174,210.47449 C 463.05547,245.50757 427.08476,242.34219 420.88774,221.89592 C 429.29499,244.18725 406.52765,266.37924 396.10324,227.75307 C 398.27185,270.28151 372.58246,257.92354 368.14124,233.31735"
       style="fill:#000000;fill-opacity:1;stroke:#808080;stroke-width:3;stroke-linecap:round;stroke-linejoin:round;stroke-miterlimit:4;stroke-dasharray:none"
       id="path250" />
    <g
       style="stroke-linecap:round;stroke-linejoin:round;stroke:#808080"
       id="g250"
       transform="matrix(-1,0,0,1,600,-2)">
      <path
         id="path251"
         style="fill:#000000;fill-opacity:1;stroke:#808080;stroke-width:3;stroke-linecap:round;stroke-linejoin:round;stroke-miterlimit:4;stroke-dasharray:none"
         d="M 129.54326,141.60306 L 125.09476,141.60306"
         sodipodi:nodetypes="cc" />
      <path
         id="path252"
         style="fill:#000000;fill-opacity:1;stroke:#808080;stroke-width:3;stroke-linecap:round;stroke-linejoin:round;stroke-miterlimit:4;stroke-dasharray:none"
         d="M 132.08526,156.53878 L 123.18826,158.88163"
         sodipodi:nodetypes="cc" />
      <path
         id="path253"
         style="fill:#000000;fill-opacity:1;stroke:#808080;stroke-width:3;stroke-linecap:round;stroke-linejoin:round;stroke-miterlimit:4;stroke-dasharray:none"
         d="M 137.32944,173.23163 L 127.16144,175.57449"
         sodipodi:nodetypes="cc" />
      <path
         id="path254"
         style="fill:#000000;fill-opacity:1;stroke:#808080;stroke-width:3;stroke-linecap:round;stroke-linejoin:round;stroke-miterlimit:4;stroke-dasharray:none"
         d="M 144.00219,188.81735 L 135.42294,193.79592"
         sodipodi:nodetypes="cc" />
      <path
         id="path255"
         style="fill:#000000;fill-opacity:1;stroke:#808080;stroke-width:3;stroke-linecap:round;stroke-linejoin:round;stroke-miterlimit:4;stroke-dasharray:none"
         d="M 155.3598,202.64592 L 145.50955,212.60307"
         sodipodi:nodetypes="cc" />
      <path
         id="path256"
         style="fill:#000000;fill-opacity:1;stroke:#808080;stroke-width:3;stroke-linecap:round;stroke-linejoin:round;stroke-miterlimit:4;stroke-dasharray:none"
         d="M 171.2473,215.8245 L 163.6213,228.41736"
         sodipodi:nodetypes="cc" />
      <path
         id="path257"
         style="fill:#000000;fill-opacity:1;stroke:#808080;stroke-width:3;stroke-linecap:round;stroke-linejoin:round;stroke-miterlimit:4;stroke-dasharray:none"
         d="M 193.41101,224.48163 L 187.37376,241.17449"
         sodipodi:nodetypes="cc" />
      <path
         id="path258"
         style="fill:#000000;fill-opacity:1;stroke:#808080;stroke-width:3;stroke-linecap:round;stroke-linejoin:round;stroke-miterlimit:4;stroke-dasharray:none"
         d="M 218.19551,233.26735 L 215.01801,246.73878"
         sodipodi:nodetypes="cc" />
    </g>
    <path
       id="path280"
       style="fill:#000000;fill-opacity:1;stroke:#808080;stroke-width:3;stroke-miterlimit:4;stroke-dasharray:none"
       d="M 356.06674,208.71735 C 355.10602,214.4804 354.9396,213.65589 354.16024,218.96735 C 417.03734,214.3043 463.6207,190.44195 459.97099,107.38878 C 466.39747,110.35149 472.92607,113.50245 471.09224,101.23878 C 479.30407,92.304816 473.27333,91.246933 464.73724,91.574493 C 469.42345,86.343142 464.42581,74.021561 455.84024,84.838779 C 445.61006,78.826876 436.44166,85.185324 446.62549,93.624493 C 436.47422,93.687295 430.78244,96.033498 435.82199,103.87449 L 440.58824,104.16735 C 437.78199,112.28865 442.00441,112.63632 447.57874,111.48878 L 450.75624,108.85306 C 456.3269,177.2215 418.1466,204.25839 356.06674,208.71735 z"
       sodipodi:nodetypes="cccccccccccc" />
    <g
       id="g300"
       transform="translate(0,-2)"
       style="stroke:#808080">
      <path
         id="path301"
         style="fill:#f00000;fill-opacity:1;stroke:#808080;stroke-width:3;stroke-linecap:round;stroke-linejoin:round;stroke-miterlimit:4;stroke-dasharray:none"
         d="M 213.39698,467.55307 C 226.92366,460.39457 234.45206,461.92351 236.1161,471.94592 C 228.92728,468.75759 224.24906,470.71128 220.86411,475.31378"
         sodipodi:nodetypes="ccc" />
      <path
         id="path302"
         style="fill:#f00000;fill-opacity:1;stroke:#808080;stroke-width:3;stroke-linecap:round;stroke-linejoin:round;stroke-miterlimit:4;stroke-dasharray:none"
         d="M 143.49198,500.20664 C 149.27647,498.91334 145.63611,484.39867 137.93135,489.66378 C 130.2266,494.92889 121.76806,498.66233 130.94085,510.89593 C 131.40492,502.0586 137.70749,501.49993 143.49198,500.20664 z"
         sodipodi:nodetypes="cscc" />
      <path
         id="path303"
         style="fill:#f00000;fill-opacity:1;stroke:#808080;stroke-width:3;stroke-linecap:round;stroke-linejoin:round;stroke-miterlimit:4;stroke-dasharray:none"
         d="M 116.75274,470.85535 C 116.79452,470.61941 117.15209,461.18744 117.14566,461.26896 C 117.13922,461.35048 103.83777,460.94457 101.54513,461.39618 C 97.628672,462.16765 95.390712,465.86745 96.013346,472.36557 C 96.371526,474.52043 96.60947,476.78609 98.709542,477.33552 C 100.83679,468.3117 103.42089,470.32736 105.67783,470.35911 C 108.4051,470.39747 116.71097,471.09128 116.75274,470.85535 z"
         sodipodi:nodetypes="cssccsc" />
      <path
         id="path304"
         style="fill:#f00000;fill-opacity:1;stroke:#808080;stroke-width:3;stroke-linecap:round;stroke-linejoin:round;stroke-miterlimit:4;stroke-dasharray:none"
         d="M 145.39848,431.67807 L 138.40798,438.12092 L 131.25861,433.72807 C 128.91983,431.65067 124.84519,431.15211 119.50185,432.26378 C 124.96908,422.48556 136.43222,423.00267 139.20235,426.55307 L 145.39848,431.67807 z"
         sodipodi:nodetypes="cccccc" />
    </g>
    <g
       id="g400"
       transform="translate(0,-2)"
       style="stroke:#808080">
      <path
         sodipodi:nodetypes="ccc"
         d="M 386.60302,467.55307 C 373.07634,460.39457 365.54794,461.92351 363.8839,471.94592 C 371.07272,468.75759 375.75094,470.71128 379.13589,475.31378"
         style="fill:#f00000;fill-opacity:1;stroke:#808080;stroke-width:3;stroke-linecap:round;stroke-linejoin:round;stroke-miterlimit:4;stroke-dasharray:none"
         id="path401" />
      <path
         sodipodi:nodetypes="cscc"
         d="M 456.50802,500.20664 C 450.72353,498.91334 454.36389,484.39867 462.06865,489.66378 C 469.7734,494.92889 478.23194,498.66233 469.05915,510.89593 C 468.59508,502.0586 462.29251,501.49993 456.50802,500.20664 z"
         style="fill:#f00000;fill-opacity:1;stroke:#808080;stroke-width:3;stroke-linecap:round;stroke-linejoin:round;stroke-miterlimit:4;stroke-dasharray:none"
         id="path402" />
      <path
         sodipodi:nodetypes="cssccsc"
         d="M 483.24726,470.85535 C 483.20548,470.61941 482.84791,461.18744 482.85434,461.26896 C 482.86078,461.35048 496.16223,460.94457 498.45487,461.39618 C 502.37133,462.16765 504.60929,465.86745 503.98665,472.36557 C 503.62847,474.52043 503.39053,476.78609 501.29046,477.33552 C 499.16321,468.3117 496.57911,470.32736 494.32217,470.35911 C 491.5949,470.39747 483.28903,471.09128 483.24726,470.85535 z"
         style="fill:#f00000;fill-opacity:1;stroke:#808080;stroke-width:3;stroke-linecap:round;stroke-linejoin:round;stroke-miterlimit:4;stroke-dasharray:none"
         id="path403" />
      <path
         sodipodi:nodetypes="cccccc"
         d="M 454.60152,431.67807 L 461.59202,438.12092 L 468.74139,433.72807 C 471.08017,431.65067 475.15481,431.15211 480.49815,432.26378 C 475.03092,422.48556 463.56778,423.00267 460.79765,426.55307 L 454.60152,431.67807 z"
         style="fill:#f00000;fill-opacity:1;stroke:#808080;stroke-width:3;stroke-linecap:round;stroke-linejoin:round;stroke-miterlimit:4;stroke-dasharray:none"
         id="path404" />
    </g>
    <path
       sodipodi:nodetypes="cccccccccccscccccccccscccccc"
       d="M 250.25598,390.58164 L 235.00398,383.55307 L 179.71548,453.54592 C 175.94853,448.53764 173.09899,440.99275 169.86523,434.51021 L 143.36036,425.89605 C 139.3297,428.45169 135.36176,432.85546 131.92136,438.19605 C 134.33225,440.57508 137.31771,441.36542 140.31448,442.12449 C 144.33931,440.10646 148.36415,439.33207 152.38898,440.07449 C 157.31173,446.10137 158.85522,450.57099 161.60373,455.59592 C 154.14495,453.79926 144.92862,450.3296 132.83606,445.86058 C 126.1691,449.48301 118.94351,454.18009 110.59356,455.21729 C 111.33256,456.57576 111.79846,457.90276 112.06028,459.20625 C 112.92955,463.534 111.5493,467.60258 110.44598,471.70307 C 112.34192,475.40969 115.24857,474.13086 117.19583,474.80319 C 128.66177,466.17583 129.34674,464.47186 135.30758,464.26033 C 147.28344,464.54686 151.28249,465.65027 158.42623,466.43164 C 151.85224,472.96552 144.23908,480.41097 135.23048,482.83164 C 133.95341,484.74961 134.0892,487.10165 134.59498,489.56735 C 142.25468,494.28539 138.74737,496.97105 138.59411,500.66039 C 139.47076,501.74873 141.98906,501.82837 144.63136,501.83182 C 150.86968,492.91719 154.43174,493.04677 159.06173,489.56735 C 162.35787,486.13899 163.35643,481.91641 166.70423,479.60001 C 178.08035,471.72865 188.1884,469.115 197.32335,470.23878 C 208.32407,474.32499 214.7488,476.40159 222.61173,476.68164 C 222.87915,475.22219 224.42322,475.70186 223.60353,472.23853 C 220.42603,471.78464 217.24853,465.96418 214.07103,461.98853 C 206.41742,461.93487 198.17667,462.96349 193.37873,457.64592 L 250.25598,390.58164 z"
       style="fill:#f00000;fill-opacity:1;stroke:#808080;stroke-width:3;stroke-linecap:round;stroke-linejoin:round;stroke-miterlimit:4;stroke-dasharray:none"
       id="path300" />
    <path
       id="path400"
       style="fill:#f00000;fill-opacity:1;stroke:#808080;stroke-width:3;stroke-linecap:round;stroke-linejoin:round;stroke-miterlimit:4;stroke-dasharray:none"
       d="M 349.74402,390.58164 L 364.99602,383.55307 L 420.28452,453.54592 C 424.05147,448.53764 426.90101,440.99275 430.13477,434.51021 L 456.63964,425.89605 C 460.6703,428.45169 464.63824,432.85546 468.07864,438.19605 C 465.66775,440.57508 462.68229,441.36542 459.68552,442.12449 C 455.66069,440.10646 451.63585,439.33207 447.61102,440.07449 C 442.68827,446.10137 441.14478,450.57099 438.39627,455.59592 C 445.85505,453.79926 455.07138,450.3296 467.16394,445.86058 C 473.8309,449.48301 481.05649,454.18009 489.40644,455.21729 C 488.66744,456.57576 488.20154,457.90276 487.93972,459.20625 C 487.07045,463.534 488.4507,467.60258 489.55402,471.70307 C 487.65808,475.40969 484.75143,474.13086 482.80417,474.80319 C 471.33823,466.17583 470.65326,464.47186 464.69242,464.26033 C 452.71656,464.54686 448.71751,465.65027 441.57377,466.43164 C 448.14776,472.96552 455.76092,480.41097 464.76952,482.83164 C 466.04659,484.74961 465.9108,487.10165 465.40502,489.56735 C 457.74532,494.28539 461.25263,496.97105 461.40589,500.66039 C 460.52924,501.74873 458.01094,501.82837 455.36864,501.83182 C 449.13032,492.91719 445.56826,493.04677 440.93827,489.56735 C 437.64213,486.13899 436.64357,481.91641 433.29577,479.60001 C 421.91965,471.72865 411.8116,469.115 402.67665,470.23878 C 391.67593,474.32499 385.2512,476.40159 377.38827,476.68164 C 377.12085,475.22219 375.57678,475.70186 376.39647,472.23853 C 379.57397,471.78464 382.75147,465.96418 385.92897,461.98853 C 393.58258,461.93487 401.82333,462.96349 406.62127,457.64592 L 349.74402,390.58164 z"
       sodipodi:nodetypes="cccccccccccscccccccccscccccc" />
    <path
       sodipodi:nodetypes="ccccc"
       d="M 237.51686,77.470901 C 241.20282,78.677146 243.07496,65.456593 233.4015,68.06436 C 205.56925,77.254677 187.288,81.896204 184.80104,64.340938 C 183.47225,59.540819 174.86218,56.783961 177.15822,66.300634 C 189.704,95.933811 211.89193,71.215051 237.51686,77.470901 z"
       style="fill:#f00000;fill-opacity:1;stroke:#808080;stroke-width:3;stroke-linecap:round;stroke-linejoin:round;stroke-miterlimit:4;stroke-dasharray:none"
       id="path501" />
    <path
       sodipodi:nodetypes="ccccccc"
       d="M 259.26948,56.698124 L 244.17982,99.02756 C 220.79082,88.068636 206.36297,85.230773 199.69473,89.425046 C 203.85113,84.064069 209.20158,73.905149 238.10477,85.701624 C 233.72403,72.723783 200.56541,58.901568 194.40355,73.15957 C 185.83987,52.970729 194.80183,43.768106 221.25138,45.527857 L 259.26948,56.698124 z"
       style="fill:#f00000;fill-opacity:1;stroke:#808080;stroke-width:3;stroke-linecap:round;stroke-linejoin:round;stroke-miterlimit:4;stroke-dasharray:none"
       id="path502" />
    <path
       id="path601"
       style="fill:#f00000;fill-opacity:1;stroke:#808080;stroke-width:3;stroke-linecap:round;stroke-linejoin:round;stroke-miterlimit:4;stroke-dasharray:none"
       d="M 362.48314,77.470901 C 358.79718,78.677146 356.92504,65.456593 366.5985,68.06436 C 394.43075,77.254677 412.712,81.896204 415.19896,64.340938 C 416.52775,59.540819 425.13782,56.783961 422.84178,66.300634 C 410.296,95.933811 388.10807,71.215051 362.48314,77.470901 z"
       sodipodi:nodetypes="ccccc" />
    <path
       id="path602"
       style="fill:#f00000;fill-opacity:1;stroke:#808080;stroke-width:3;stroke-linecap:round;stroke-linejoin:round;stroke-miterlimit:4;stroke-dasharray:none"
       d="M 340.73052,56.698124 L 355.82018,99.02756 C 379.20918,88.068636 393.63703,85.230773 400.30527,89.425046 C 396.14887,84.064069 390.79842,73.905149 361.89523,85.701624 C 366.27597,72.723783 399.43459,58.901568 405.59645,73.15957 C 414.16013,52.970729 405.19817,43.768106 378.74862,45.527857 L 340.73052,56.698124 z"
       sodipodi:nodetypes="ccccccc" />
    <path
       id="path700"
       style="opacity:1;fill:#000000;fill-opacity:1;fill-rule:nonzero;stroke:#808080;stroke-width:3;stroke-linecap:butt;stroke-linejoin:miter;marker:none;marker-start:none;marker-mid:none;marker-end:none;stroke-miterlimit:4;stroke-dasharray:none;stroke-dashoffset:0;stroke-opacity:1;visibility:visible;display:inline;overflow:visible;enable-background:accumulate"
       d="M 300,610.34162 L 314.15543,570.98162 L 329.40744,574.49589 C 312.78,555.51928 313.41334,542.90614 308.43594,528.22449 C 305.65851,497.42012 309.70425,482.33736 313.51993,466.72448 C 335.34343,538.10673 350.5903,533.73785 371.03269,563.95304 C 377.21066,521.69736 354.85493,514.19313 338.62218,499.23161 C 330.88385,486.82927 328.79456,478.59212 324.95894,469.06734 C 338.45792,481.62041 344.3658,490.28142 371.03269,503.91733 C 396.26073,508.38775 415.95511,513.83725 434.58268,522.36736 C 423.34151,501.12754 399.42621,487.67523 365.31318,480.48877 C 317.06332,459.99714 325.26664,448.92279 321.46368,436.5602 L 339.89319,446.51734 C 368.88314,443.92092 367.53503,449.15368 377.38768,451.49591 C 363.08996,425.40608 347.66337,427.40777 332.58493,420.74591 C 313.2997,401.03543 319.82961,379.16433 320.51043,367.15306 C 329.23795,377.2547 339.92259,385.74951 340.52868,409.32448 C 344.28801,405.65604 347.60366,396.25489 348.15469,412.54591 C 351.42078,392.65987 368.19982,396.43704 378.97644,389.70306 L 372.30368,383.2602 L 377.06994,380.91735 C 364.78961,372.04859 355.8992,362.3184 352.28543,356.90306 C 349.29399,352.42029 346.76746,345.88054 345.48227,339.38258 C 344.05408,332.16158 348.3931,308.94729 351.28277,294.33178 C 355.54737,272.76212 359.95427,241.66303 361.58235,226.92763 C 363.16236,212.6273 363.24686,198.50025 361.80356,190.26206 C 361.40543,187.98958 360.45788,184.45099 360.0522,183.22691 C 359.41676,181.30956 363.10602,183.19261 364.2934,182.8943 C 360.26589,178.71529 355.78528,170.14163 354.75132,168.41651 C 350.66198,161.59362 349.2385,159.90005 348.34895,155.69388 C 351.24301,156.14776 354.20942,156.20565 356.78474,155.85401 C 351.13374,150.19712 344.90639,133.70322 344.45283,130.8648 C 346.33702,130.89269 351.36378,130.13074 354.34218,129.18786 C 350.04923,126.1321 348.01989,120.83503 348.16842,115.52826 C 348.52767,102.69247 361.39052,97.186177 365.22672,94.324286 C 351.18234,91.407785 350.95157,78.711746 378.55265,46.311737 C 378.05442,38.855258 373.07568,38.271077 365.56465,38.421823 C 344.06252,38.853365 332.28594,42.359891 330.34413,44.156071 C 322.63532,45.419403 316.67533,43.754647 312.49697,42.564538 C 319.94424,52.814765 326.75707,48.553974 308.52017,56.616951 C 307.30485,60.506467 326.53873,56.134966 302,69.550944 C 302.64985,72.753872 319.68809,67.198538 301.986,80.570516 C 302.74068,83.950023 305.56726,85.867174 308.30451,85.873819 C 307.95989,92.191465 300.09681,96.048492 301.913,96.936196 C 302.76824,97.354215 306.06815,98.1601 309.86419,98.16636 C 308.65255,99.44662 301.33941,110.8171 301.01297,112.79644 C 300.68202,114.80311 306.38198,110.90156 305.08511,114.80792 C 302.75335,121.83153 300.76616,124.98731 300,128.966 C 299.23384,124.98731 297.24665,121.83153 294.91489,114.80792 C 293.61802,110.90156 299.31798,114.80311 298.98703,112.79644 C 298.66059,110.8171 291.34745,99.44662 290.13581,98.16636 C 293.93185,98.1601 297.23176,97.354215 298.087,96.936196 C 299.90319,96.048492 292.04011,92.191465 291.69549,85.873819 C 294.43274,85.867174 297.25932,83.950023 298.014,80.570516 C 280.31191,67.198538 297.35015,72.753872 298,69.550944 C 273.46127,56.134966 292.69515,60.506467 291.47983,56.616951 C 273.24293,48.553974 280.05576,52.814765 287.50303,42.564538 C 283.32467,43.754647 277.36468,45.419403 269.65587,44.156071 C 267.71406,42.359891 255.93748,38.853365 234.43535,38.421823 C 226.92432,38.271077 221.94558,38.855258 221.44735,46.311737 C 249.04843,78.711746 248.81766,91.407785 234.77328,94.324286 C 238.60948,97.186177 251.47233,102.69247 251.83158,115.52826 C 251.98011,120.83503 249.95077,126.1321 245.65782,129.18786 C 248.63622,130.13074 253.66298,130.89269 255.54717,130.8648 C 255.09361,133.70322 248.86626,150.19712 243.21526,155.85401 C 245.79058,156.20565 248.75699,156.14776 251.65105,155.69388 C 250.7615,159.90005 249.33802,161.59362 245.24868,168.41651 C 244.21472,170.14163 239.73411,178.71529 235.7066,182.8943 C 236.89398,183.19261 240.58324,181.30956 239.9478,183.22691 C 239.54212,184.45099 238.59457,187.98958 238.19644,190.26206 C 236.75314,198.50025 236.83764,212.6273 238.41765,226.92763 C 240.04573,241.66303 244.45263,272.76212 248.71723,294.33178 C 251.6069,308.94729 255.94592,332.16158 254.51773,339.38258 C 253.23254,345.88054 250.70601,352.42029 247.71457,356.90306 C 244.1008,362.3184 235.21039,372.04859 222.93006,380.91735 L 227.69632,383.2602 L 221.02356,389.70306 C 231.80018,396.43704 248.57922,392.65987 251.84531,412.54591 C 252.39634,396.25489 255.71199,405.65604 259.47132,409.32448 C 260.07741,385.74951 270.76205,377.2547 279.48957,367.15306 C 280.17039,379.16433 286.7003,401.03543 267.41507,420.74591 C 252.33663,427.40777 236.91004,425.40608 222.61232,451.49591 C 232.46497,449.15368 231.11686,443.92092 260.10681,446.51734 L 278.53632,436.5602 C 274.73336,448.92279 282.93668,459.99714 234.68682,480.48877 C 200.57379,487.67523 176.65849,501.12754 165.41732,522.36736 C 184.04489,513.83725 203.73927,508.38775 228.96731,503.91733 C 255.6342,490.28142 261.54208,481.62041 275.04106,469.06734 C 271.20544,478.59212 269.11615,486.82927 261.37782,499.23161 C 245.14507,514.19313 222.78934,521.69736 228.96731,563.95304 C 249.4097,533.73785 264.65657,538.10673 286.48007,466.72448 C 290.29575,482.33736 294.34149,497.42012 291.56406,528.22449 C 286.58666,542.90614 287.22,555.51928 270.59256,574.49589 L 285.84457,570.98162 L 300,610.34162 z"
       sodipodi:nodetypes="cccccccccccccccccccccsssssscsccccsccsccccccscsscsscsccccccsccsccccscssssssccccccccccccccccccccc" />
    <path
       sodipodi:nodetypes="csssscsssc"
       d="M 256.36681,62.832995 C 256.11289,61.908704 255.79054,61.06092 255.375,60.183058 C 254.86812,59.112244 254.01741,57.79222 252.91528,56.604862 C 252.37526,56.023084 251.77488,55.473155 251.125,55 C 251.01858,54.922519 250.9073,54.84506 250.79165,54.767775 C 249.12759,53.655742 246.55835,52.579802 244.54214,51.999197 C 243.93417,54.080146 243.24705,55.277915 243.22915,57.517775 C 243.21199,59.663857 243.92621,61.53936 245.35278,62.979862 C 246.81008,64.451389 248.96811,64.834618 250.6875,64.683058 C 252.56902,64.517206 254.86292,63.721527 256.36681,62.832995 z"
       style="fill:#ffffff;fill-opacity:1;stroke:#808080;stroke-width:3;stroke-linecap:round;stroke-linejoin:round;stroke-miterlimit:4;stroke-dasharray:none"
       id="path801" />
    <path
       id="path802"
       style="fill:none;fill-opacity:1;stroke:#808080;stroke-width:3;stroke-linecap:round;stroke-linejoin:round;stroke-miterlimit:4;stroke-dasharray:none"
       d="M 252.91557,56.604873 C 252.37555,56.023095 251.77488,55.473155 251.125,55 C 251.01858,54.922519 250.9073,54.845061 250.79253,54.767418 C 250.69716,54.755793 250.59925,54.75 250.5,54.75 C 249.12,54.75 248,55.87 248,57.25 C 248,58.63 249.12,59.75 250.5,59.75 C 251.88,59.75 253,58.63 253,57.25 C 253,57.026959 252.97045,56.810699 252.91557,56.604873 z"
       sodipodi:nodetypes="cscssssc" />
    <path
       id="path803"
       style="fill:none;fill-opacity:1;stroke:#808080;stroke-width:3;stroke-linecap:round;stroke-linejoin:round;stroke-miterlimit:4;stroke-dasharray:none"
       d="M 257.18934,66.892767 C 256.85745,66.019712 256.85772,65.014044 256.60983,63.838388 C 256.53652,63.490702 256.45583,63.156956 256.3667,62.832579 C 254.86281,63.721111 252.56902,64.517206 250.6875,64.683058 C 248.96811,64.834618 246.81008,64.451389 245.35278,62.979862 C 243.92621,61.53936 243.21199,59.663857 243.22915,57.517775 C 243.24705,55.277915 243.93417,54.080146 244.54262,51.999336 C 244.22344,51.907405 243.9181,51.827875 243.63236,51.762564 C 242.53202,51.511059 241.73114,50.708087 241.44822,50.03033 C 241.13429,49.278267 240.98363,47.70776 240.92678,46.75 C 240.98363,47.70776 241.13429,49.278267 241.44822,50.03033 C 241.73114,50.708087 242.53202,51.511059 243.63236,51.762564 C 245.72335,52.240501 248.86451,53.479936 250.79165,54.767775 C 250.9073,54.845061 251.01858,54.922519 251.125,55 C 251.77488,55.473155 252.37526,56.023084 252.91528,56.604862 C 254.01741,57.79222 254.86812,59.112244 255.375,60.183058 C 255.93626,61.368754 256.3277,62.50034 256.60983,63.838388 C 256.85772,65.014044 256.85745,66.019712 257.18934,66.892767 z"
       sodipodi:nodetypes="cscssscsscsssssssc" />
    <path
       id="path901"
       style="fill:#ffffff;fill-opacity:1;stroke:#808080;stroke-width:3;stroke-linecap:round;stroke-linejoin:round;stroke-miterlimit:4;stroke-dasharray:none"
       d="M 343.63319,62.832995 C 343.88711,61.908704 344.20946,61.06092 344.625,60.183058 C 345.13188,59.112244 345.98259,57.79222 347.08472,56.604862 C 347.62474,56.023084 348.22512,55.473155 348.875,55 C 348.98142,54.922519 349.0927,54.84506 349.20835,54.767775 C 350.87241,53.655742 353.44165,52.579802 355.45786,51.999197 C 356.06583,54.080146 356.75295,55.277915 356.77085,57.517775 C 356.78801,59.663857 356.07379,61.53936 354.64722,62.979862 C 353.18992,64.451389 351.03189,64.834618 349.3125,64.683058 C 347.43098,64.517206 345.13708,63.721527 343.63319,62.832995 z"
       sodipodi:nodetypes="csssscsssc" />
    <path
       sodipodi:nodetypes="cscssssc"
       d="M 347.08443,56.604873 C 347.62445,56.023095 348.22512,55.473155 348.875,55 C 348.98142,54.922519 349.0927,54.845061 349.20747,54.767418 C 349.30284,54.755793 349.40075,54.75 349.5,54.75 C 350.88,54.75 352,55.87 352,57.25 C 352,58.63 350.88,59.75 349.5,59.75 C 348.12,59.75 347,58.63 347,57.25 C 347,57.026959 347.02955,56.810699 347.08443,56.604873 z"
       style="fill:none;fill-opacity:1;stroke:#808080;stroke-width:3;stroke-linecap:round;stroke-linejoin:round;stroke-miterlimit:4;stroke-dasharray:none"
       id="path902" />
    <path
       sodipodi:nodetypes="cscssscsscsssssssc"
       d="M 342.81066,66.892767 C 343.14255,66.019712 343.14228,65.014044 343.39017,63.838388 C 343.46348,63.490702 343.54417,63.156956 343.6333,62.832579 C 345.13719,63.721111 347.43098,64.517206 349.3125,64.683058 C 351.03189,64.834618 353.18992,64.451389 354.64722,62.979862 C 356.07379,61.53936 356.78801,59.663857 356.77085,57.517775 C 356.75295,55.277915 356.06583,54.080146 355.45738,51.999336 C 355.77656,51.907405 356.0819,51.827875 356.36764,51.762564 C 357.46798,51.511059 358.26886,50.708087 358.55178,50.03033 C 358.86571,49.278267 359.01637,47.70776 359.07322,46.75 C 359.01637,47.70776 358.86571,49.278267 358.55178,50.03033 C 358.26886,50.708087 357.46798,51.511059 356.36764,51.762564 C 354.27665,52.240501 351.13549,53.479936 349.20835,54.767775 C 349.0927,54.845061 348.98142,54.922519 348.875,55 C 348.22512,55.473155 347.62474,56.023084 347.08472,56.604862 C 345.98259,57.79222 345.13188,59.112244 344.625,60.183058 C 344.06374,61.368754 343.6723,62.50034 343.39017,63.838388 C 343.14228,65.014044 343.14255,66.019712 342.81066,66.892767 z"
       style="fill:none;fill-opacity:1;stroke:#808080;stroke-width:3;stroke-linecap:round;stroke-linejoin:round;stroke-miterlimit:4;stroke-dasharray:none"
       id="path903" />
   </g>
   <!-- End eagle -->

   <g class="cotice">
    <path
       sodipodi:nodetypes="cccccc"
       d="M 1.5,1.5000031 L 65.14112,1.500006 L 534.8648,471.22551 C 517.4741,497.42941 497.74,520.60261 477.2768,540.91631 L 1.5,65.138355 L 1.5,1.5000031 z"
       style="fill:#f00000;fill-opacity:1;stroke:#000000;stroke-width:1.5;stroke-miterlimit:4;stroke-dasharray:none;opacity:1;color:#000000;fill-rule:nonzero;stroke-linecap:round;stroke-linejoin:round;marker:none;marker-start:none;marker-mid:none;marker-end:none;stroke-dashoffset:0;stroke-opacity:1;visibility:visible;display:inline;overflow:visible;enable-background:accumulate"
       id="path20" />
   </g>

   <g class="escutcheon">
    <path
       sodipodi:nodetypes="cccccc"
       d="M 1.5,1.5 L 598.5,1.5 L 598.5,260 C 598.5,546.7 300,658.392 300,658.392 C 300,658.392 1.5,546.7 1.5,260 L 1.5,1.5 z"
       style="fill:none;fill-opacity:1;stroke:#000000;stroke-width:3;stroke-miterlimit:4;stroke-dasharray:none"
       id="path2446" />
    <path
       id="path2447"
       style="fill:url(#radialGradient3225);fill-opacity:1;stroke:#000000;stroke-width:3;stroke-miterlimit:4;stroke-dasharray:none"
       d="M 1.5,1.5 L 598.5,1.5 L 598.5,260 C 598.5,546.7 300,658.392 300,658.392 C 300,658.392 1.5,546.7 1.5,260 L 1.5,1.5 z"
       sodipodi:nodetypes="cccccc" />
   </g>
  </g>
</svg>
