<?xml version="1.0" encoding="UTF-8" standalone="no"?>
<!-- Created with Inkscape (http://www.inkscape.org/) -->
<svg
   xmlns:svg="http://www.w3.org/2000/svg"
   xmlns="http://www.w3.org/2000/svg"
   version="1.0"
   width="1025.996"
   height="628.82501"
   viewBox="0 0 1100 700"
   id="svg2117"
   xml:space="preserve"><defs
   id="defs2149">
			
			
			
			
			
			
			
			
			
			
			
			
			
			
			 
			
			
			
			 
			
			
			
			
		</defs>
	
		<path
   d="M 890.42433,626.36207 C 890.42433,625.52207 890.40733,624.80907 890.37333,624.22107 C 890.33933,623.63307 890.23833,623.15307 890.07133,622.78307 C 889.90333,622.41407 889.66033,622.14407 889.34033,621.97607 C 889.02233,621.80807 888.57533,621.69107 888.00533,621.62207 L 885.58533,621.42107 C 885.38433,621.31907 885.27533,621.13607 885.25833,620.86607 C 885.24133,620.59607 885.33333,620.41307 885.53433,620.31107 C 887.65133,619.94207 889.39933,619.47107 890.77633,618.89907 C 892.15433,618.32907 893.17733,617.82307 893.84933,617.38707 C 894.08533,617.38707 894.25333,617.47107 894.35533,617.63907 C 894.28733,618.11007 894.23733,618.91607 894.20433,620.05907 C 894.17033,621.20207 894.15333,622.49507 894.15333,623.94007 L 894.15333,643.49507 C 894.15333,644.47207 894.17033,645.26807 894.20433,645.89007 C 894.23733,646.51307 894.32033,646.99907 894.45533,647.35307 C 894.59033,647.70707 894.80833,647.95707 895.11033,648.10907 C 895.41233,648.26107 895.81633,648.35107 896.32133,648.38607 L 898.43733,648.53407 C 898.60533,648.70407 898.67133,648.93807 898.63733,649.24107 C 898.60333,649.54407 898.50233,649.72707 898.33533,649.79607 C 897.36033,649.73007 896.33533,649.68707 895.26033,649.67107 C 894.18533,649.65307 893.21133,649.64607 892.33733,649.64607 C 891.43033,649.64607 890.44033,649.65407 889.36333,649.67107 C 888.28733,649.68707 887.26233,649.73007 886.28933,649.79607 C 886.12133,649.73007 886.02033,649.54407 885.98633,649.24107 C 885.95333,648.93807 886.02033,648.70407 886.18733,648.53407 L 888.25333,648.38607 C 888.79033,648.35107 889.20133,648.25907 889.48733,648.10907 C 889.77233,647.95907 889.98233,647.70707 890.11733,647.35307 C 890.25133,646.99907 890.33533,646.51307 890.36933,645.89007 C 890.40333,645.26907 890.42033,644.47207 890.42033,643.49507 L 890.42033,626.36007 L 890.42433,626.36007 L 890.42433,626.36207 z M 915.62433,626.36207 C 915.62433,625.52207 915.60633,624.80907 915.57333,624.22107 C 915.53933,623.63307 915.43733,623.15307 915.26933,622.78307 C 915.10333,622.41407 914.85933,622.14407 914.54033,621.97607 C 914.22133,621.80807 913.77533,621.69107 913.20433,621.62207 L 910.78533,621.42107 C 910.58433,621.31907 910.47333,621.13607 910.45833,620.86607 C 910.44333,620.59607 910.53333,620.41307 910.73433,620.31107 C 912.85033,619.94207 914.59833,619.47107 915.97533,618.89907 C 917.35333,618.32907 918.37733,617.82307 919.04933,617.38707 C 919.28433,617.38707 919.45333,617.47107 919.55333,617.63907 C 919.48733,618.11007 919.43533,618.91607 919.40333,620.05907 C 919.37033,621.20207 919.35333,622.49507 919.35333,623.94007 L 919.35333,643.49507 C 919.35333,644.47207 919.37033,645.26807 919.40333,645.89007 C 919.43533,646.51307 919.51933,646.99907 919.65533,647.35307 C 919.78933,647.70707 920.00833,647.95707 920.31033,648.10907 C 920.61233,648.26107 921.01533,648.35107 921.52033,648.38607 L 923.63633,648.53407 C 923.80433,648.70407 923.87133,648.93807 923.83733,649.24107 C 923.80333,649.54407 923.70233,649.72707 923.53533,649.79607 C 922.56033,649.73007 921.53533,649.68707 920.46033,649.67107 C 919.38533,649.65307 918.41033,649.64607 917.53733,649.64607 C 916.62933,649.64607 915.63833,649.65407 914.56233,649.67107 C 913.48833,649.68707 912.46133,649.73007 911.48933,649.79607 C 911.32133,649.73007 911.21833,649.54407 911.18633,649.24107 C 911.15333,648.93807 911.21933,648.70407 911.38633,648.53407 L 913.45333,648.38607 C 913.99033,648.35107 914.40133,648.25907 914.68733,648.10907 C 914.97233,647.95907 915.18233,647.70707 915.31733,647.35307 C 915.45133,646.99907 915.53533,646.51307 915.56933,645.89007 C 915.60233,645.26907 915.62033,644.47207 915.62033,643.49507 L 915.62033,626.36007 L 915.62433,626.36007 L 915.62433,626.36207 z "
   id="Nr._11" /><path
   d="M 835.52133,393.92007 L 835.52133,508.85807 L 835.58333,508.85807 C 835.58333,546.94607 866.49533,577.85807 904.58333,577.85807 C 942.67133,577.85807 973.58333,546.94607 973.58333,508.85807 L 973.45833,508.85807 L 973.45833,393.92007 L 835.52133,393.92007 z "
   style="fill:#f90101;stroke:black;stroke-width:2"
   id="CoA_Nr._11" /><path
   d="M 709.57133,626.36207 C 709.57133,625.52207 709.55233,624.80907 709.51933,624.22107 C 709.48633,623.63307 709.38433,623.15307 709.21633,622.78307 C 709.04933,622.41407 708.80533,622.14407 708.48733,621.97607 C 708.16833,621.80807 707.72133,621.69107 707.15133,621.62207 L 704.73233,621.42107 C 704.53133,621.31907 704.42033,621.13607 704.40533,620.86607 C 704.38833,620.59607 704.48033,620.41307 704.68033,620.31107 C 706.79733,619.94207 708.54433,619.47107 709.92233,618.89907 C 711.30033,618.32907 712.32433,617.82307 712.99633,617.38707 C 713.23133,617.38707 713.40033,617.47107 713.50033,617.63907 C 713.43333,618.11007 713.38233,618.91607 713.34933,620.05907 C 713.31733,621.20207 713.29933,622.49507 713.29933,623.94007 L 713.29933,643.49507 C 713.29933,644.47207 713.31733,645.26807 713.34933,645.89007 C 713.38233,646.51307 713.46633,646.99907 713.60133,647.35307 C 713.73633,647.70707 713.95533,647.95707 714.25633,648.10907 C 714.55833,648.25907 714.96233,648.35107 715.46633,648.38607 L 717.58233,648.53407 C 717.75133,648.70407 717.81733,648.93807 717.78433,649.24107 C 717.75033,649.54407 717.64933,649.72707 717.48233,649.79607 C 716.50633,649.73007 715.48233,649.68707 714.40733,649.67107 C 713.33233,649.65307 712.35733,649.64607 711.48433,649.64607 C 710.57633,649.64607 709.58533,649.65407 708.50833,649.67107 C 707.43333,649.68707 706.40833,649.73007 705.43633,649.79607 C 705.26733,649.73007 705.16533,649.54407 705.13233,649.24107 C 705.10033,648.93807 705.16633,648.70407 705.33333,648.53407 L 707.40033,648.38607 C 707.93733,648.35107 708.34833,648.25907 708.63433,648.10907 C 708.91833,647.95907 709.12833,647.70707 709.26333,647.35307 C 709.39833,646.99907 709.48233,646.51307 709.51633,645.89007 C 709.54833,645.26907 709.56733,644.47207 709.56733,643.49507 L 709.56733,626.36007 L 709.57133,626.36007 L 709.57133,626.36207 z M 736.28333,618.90507 C 735.34233,618.90507 734.55233,619.16507 733.91333,619.68407 C 733.27533,620.20507 732.72833,620.88507 732.27633,621.72507 C 731.82333,622.56707 731.46933,623.52407 731.21633,624.59807 C 730.96433,625.67407 730.77133,626.76607 730.63633,627.87507 C 730.50233,628.98207 730.41833,630.06607 730.38433,631.12507 C 730.35033,632.18407 730.33333,633.10007 730.33333,633.87307 C 730.33333,634.64307 730.35033,635.56107 730.38433,636.61907 C 730.41833,637.67607 730.50233,638.76207 730.63633,639.86907 C 730.77133,640.97607 730.96433,642.06807 731.21633,643.14407 C 731.46933,644.22007 731.82133,645.17707 732.27633,646.01707 C 732.72833,646.85707 733.27533,647.53807 733.91333,648.05807 C 734.55233,648.57907 735.34233,648.83907 736.28333,648.83907 C 737.19033,648.83907 737.97133,648.57907 738.62733,648.05807 C 739.28233,647.53807 739.83633,646.85707 740.29033,646.01707 C 740.74333,645.17707 741.09633,644.22007 741.34833,643.14407 C 741.60033,642.06807 741.79333,640.97607 741.92833,639.86907 C 742.06433,638.76207 742.14833,637.68507 742.18033,636.64207 C 742.21433,635.60107 742.23233,634.67707 742.23233,633.87207 C 742.23233,633.09907 742.21433,632.18307 742.18033,631.12407 C 742.14833,630.06507 742.06433,628.98107 741.92833,627.87407 C 741.79333,626.76507 741.60033,625.67307 741.34833,624.59707 C 741.09633,623.52307 740.74433,622.56607 740.29033,621.72407 C 739.83633,620.88407 739.28233,620.20407 738.62733,619.68307 C 737.97233,619.16407 737.19033,618.90507 736.28333,618.90507 L 736.28333,618.90507 z M 736.28333,617.39107 C 738.13133,617.39107 739.71033,617.89507 741.01933,618.90307 C 742.33033,619.91307 743.40633,621.20807 744.24633,622.78607 C 745.08733,624.36407 745.70833,626.13007 746.11133,628.07707 C 746.51333,630.02607 746.71533,631.95807 746.71533,633.87407 C 746.71533,635.85407 746.51433,637.83107 746.11133,639.79607 C 745.70833,641.76107 745.08733,643.52507 744.24633,645.08707 C 743.40633,646.64907 742.33133,647.91907 741.01933,648.89407 C 739.70833,649.86907 738.12933,650.35507 736.28333,650.35507 C 734.43533,650.35507 732.85633,649.86907 731.54633,648.89407 C 730.23633,647.91907 729.16033,646.65007 728.31933,645.08707 C 727.47833,643.52407 726.85733,641.76107 726.45533,639.79607 C 726.05233,637.83107 725.85033,635.85707 725.85033,633.87407 C 725.85033,631.95807 726.05233,630.02607 726.45533,628.07707 C 726.85733,626.13007 727.47833,624.36607 728.31933,622.78607 C 729.16033,621.20807 730.23533,619.91307 731.54633,618.90307 C 732.85733,617.89507 734.43633,617.39107 736.28333,617.39107 L 736.28333,617.39107 z "
   id="Nr._10" /><path
   d="M 715.84133,389.85707 C 703.08033,389.85707 695.12333,400.83307 675.27933,403.91907 C 675.29533,415.81707 670.38633,427.52107 663.84133,435.23107 C 663.84133,435.23107 676.59133,441.28107 676.59133,454.66907 C 676.59133,474.88407 655.46633,474.91907 655.46633,474.91907 C 655.46633,474.91907 651.90433,482.35807 651.90433,497.41907 C 651.90433,531.89207 675.06733,557.94607 692.65433,565.98107 C 710.24133,574.01607 720.36333,577.43207 725.59233,584.73107 C 730.82133,577.43207 740.88033,574.01607 758.46733,565.98107 C 776.05433,557.94607 799.21733,531.88907 799.21733,497.41907 C 799.21733,482.35807 795.65533,474.91907 795.65533,474.91907 C 795.65533,474.91907 774.53033,474.88407 774.53033,454.66907 C 774.53033,441.28107 787.28033,435.23107 787.28033,435.23107 C 780.73433,427.51807 775.82733,415.81707 775.84233,403.91907 C 755.99733,400.83207 748.04033,389.85707 735.28033,389.85707 C 728.00433,389.85707 725.59233,393.60707 725.59233,393.60707 C 725.59233,393.60707 723.11733,389.85707 715.84133,389.85707 z "
   style="fill:#f90101;stroke:black;stroke-width:2"
   id="CoA_Nr._10" /><path
   d="M 546.06433,618.90507 C 544.45133,618.90507 543.10733,619.50107 542.03233,620.69407 C 540.95733,621.88507 540.42033,623.60807 540.42033,625.86007 C 540.42033,626.83507 540.54633,627.82507 540.79733,628.83307 C 541.04933,629.84307 541.41033,630.74907 541.88133,631.55607 C 542.35233,632.36307 542.94833,633.02707 543.67033,633.54607 C 544.39333,634.06707 545.24133,634.32707 546.21533,634.32707 C 546.85433,634.32707 547.30733,634.30907 547.57533,634.27607 C 547.84533,634.24307 548.13133,634.19207 548.43133,634.12407 C 548.66633,634.26107 548.71633,634.46207 548.58233,634.72907 C 548.07733,635.16707 547.43833,635.52007 546.66633,635.79007 C 545.89433,636.05807 545.02033,636.19007 544.04633,636.19007 C 543.03833,636.19007 542.07233,635.99107 541.15033,635.58607 C 540.22533,635.18407 539.41133,634.62107 538.70533,633.89807 C 537.99933,633.17507 537.43533,632.28507 537.01733,631.22607 C 536.59733,630.16707 536.38733,628.98407 536.38733,627.67307 C 536.38733,626.16107 536.65733,624.77507 537.19533,623.51507 C 537.73333,622.25507 538.46433,621.17107 539.38633,620.26507 C 540.30933,619.35707 541.40433,618.65407 542.66233,618.14807 C 543.92033,617.64207 545.27433,617.39007 546.72033,617.39007 C 548.29933,617.39007 549.71033,617.71007 550.95233,618.34907 C 552.19533,618.98807 553.24533,619.87807 554.10133,621.02107 C 554.95833,622.16407 555.61533,623.52307 556.06833,625.10307 C 556.52133,626.68107 556.74833,628.39607 556.74833,630.24407 C 556.74833,631.62307 556.60533,633.05107 556.31933,634.52707 C 556.03433,636.00707 555.58933,637.46607 554.98433,638.91207 C 554.37933,640.35807 553.60733,641.76207 552.66733,643.12107 C 551.72633,644.48207 550.61633,645.73407 549.33933,646.87707 C 548.39933,647.71707 547.40733,648.46507 546.36633,649.11907 C 545.32433,649.77307 544.27333,650.33807 543.21633,650.80707 C 542.15733,651.27807 541.12533,651.67207 540.11633,651.99307 C 539.10733,652.31107 538.18333,652.54007 537.34533,652.67307 C 537.14333,652.60707 537.00933,652.43107 536.94233,652.14607 C 536.87633,651.85907 536.90933,651.64807 537.04433,651.51507 C 540.03433,650.60907 542.52133,649.43307 544.50433,647.98807 C 545.64633,647.14607 546.69633,646.17407 547.65333,645.06407 C 548.61133,643.95707 549.43333,642.66907 550.12333,641.21007 C 550.81133,639.74707 551.34133,638.08507 551.71033,636.22007 C 552.08033,634.35507 552.26533,632.23007 552.26533,629.84307 C 552.26533,628.70007 552.17333,627.49107 551.99033,626.21607 C 551.80433,624.93907 551.47633,623.75507 551.00733,622.66107 C 550.53633,621.56907 549.89833,620.67107 549.09233,619.96607 C 548.28133,619.25807 547.27333,618.90507 546.06433,618.90507 L 546.06433,618.90507 z "
   id="Nr._9" /><path
   d="M 579.72433,390.23207 C 558.18933,390.74907 539.11233,397.24407 523.22433,412.79407 C 506.19133,402.73307 480.62433,412.16507 477.22433,431.04407 C 479.53433,429.50507 482.30533,428.66907 485.28633,428.66907 C 493.31933,428.66907 499.84833,435.13607 499.84833,443.16907 C 499.84833,451.20207 493.32033,457.73107 485.28633,457.73107 C 482.85633,457.73107 480.55133,457.16107 478.53633,456.10607 L 478.66133,457.29407 C 478.66133,478.51307 471.59933,487.76307 471.59933,506.73207 C 471.59933,545.84107 509.37933,582.54407 547.47433,582.54407 C 585.56933,582.54407 621.53633,548.17507 621.53633,508.04407 C 621.53633,477.29007 597.28633,462.56507 597.28633,433.04407 C 597.28633,403.52307 610.53633,392.91907 610.53633,392.91907 C 599.79033,390.99107 589.51333,389.99707 579.72433,390.23207 z "
   style="fill:#f90101;stroke:black;stroke-width:2"
   id="CoA_Nr._9" /><path
   d="M 367.85333,618.90507 C 366.98133,618.90507 366.21533,619.05507 365.56033,619.35807 C 364.90633,619.66107 364.35033,620.07107 363.89833,620.59207 C 363.44433,621.11207 363.10833,621.70907 362.88833,622.38107 C 362.66933,623.05307 362.56133,623.75807 362.56133,624.49807 C 362.56133,625.37107 362.75433,626.16007 363.14033,626.86707 C 363.52833,627.57007 364.03933,628.21907 364.67833,628.80507 C 365.31733,629.39507 366.02333,629.91407 366.79433,630.36907 C 367.56633,630.82007 368.35633,631.25007 369.16333,631.65207 C 370.33833,630.91407 371.30433,629.98007 372.05933,628.85507 C 372.81633,627.72807 373.19433,626.39207 373.19433,624.84707 C 373.19433,624.07607 373.06833,623.33507 372.81633,622.63007 C 372.56333,621.92307 372.20333,621.29407 371.73233,620.73907 C 371.26133,620.18407 370.70033,619.73907 370.04433,619.40307 C 369.38833,619.06707 368.65933,618.90507 367.85333,618.90507 L 367.85333,618.90507 z M 367.70033,648.84207 C 369.51433,648.84207 370.94333,648.28707 371.98433,647.17807 C 373.02633,646.07107 373.54633,644.59207 373.54633,642.74407 C 373.54633,641.73407 373.32733,640.81007 372.89133,639.97107 C 372.45533,639.13207 371.88333,638.35807 371.17733,637.65307 C 370.47233,636.94807 369.67433,636.31707 368.78333,635.76407 C 367.89133,635.20907 366.99433,634.73107 366.08833,634.32607 C 365.21433,634.76407 364.49133,635.28507 363.92133,635.88807 C 363.35033,636.49207 362.87933,637.13807 362.50933,637.82707 C 362.14033,638.51507 361.87933,639.21407 361.72933,639.91907 C 361.57833,640.62407 361.50133,641.31407 361.50133,641.98307 C 361.50133,642.92407 361.65233,643.80707 361.95533,644.62907 C 362.25733,645.45107 362.67733,646.17407 363.21533,646.79707 C 363.75233,647.41807 364.40033,647.91407 365.15433,648.28307 C 365.91233,648.65707 366.76033,648.84207 367.70033,648.84207 L 367.70033,648.84207 z M 368.20533,617.39107 C 369.31333,617.39107 370.38033,617.55107 371.40533,617.87007 C 372.42833,618.18807 373.32033,618.65107 374.07633,619.25707 C 374.83333,619.86107 375.43733,620.62607 375.88933,621.55007 C 376.34233,622.47407 376.57033,623.54007 376.57033,624.75107 C 376.57033,625.79207 376.37833,626.70807 375.99133,627.49707 C 375.60533,628.28807 375.11833,628.98307 374.53033,629.58907 C 373.94233,630.19507 373.30233,630.72207 372.61433,631.17707 C 371.92633,631.63007 371.26033,632.04207 370.62433,632.41107 C 371.49833,632.91507 372.33833,633.46207 373.14533,634.05007 C 373.95333,634.63807 374.65833,635.31007 375.26133,636.06607 C 375.86533,636.82207 376.35433,637.67707 376.72233,638.63607 C 377.09233,639.59307 377.27833,640.67707 377.27833,641.88807 C 377.27833,643.19707 377.03533,644.37207 376.54833,645.41507 C 376.06133,646.45607 375.37233,647.34707 374.48333,648.08507 C 373.59233,648.82307 372.54333,649.38807 371.33433,649.77307 C 370.12433,650.16207 368.81333,650.35307 367.40333,650.35307 C 366.22533,650.35307 365.06733,650.20307 363.92433,649.90007 C 362.78133,649.59707 361.76533,649.11907 360.87433,648.46207 C 359.98333,647.80507 359.26133,646.96807 358.70733,645.94207 C 358.15233,644.91707 357.87633,643.66507 357.87633,642.18607 C 357.87633,641.11207 358.07733,640.12907 358.48033,639.23907 C 358.88133,638.34807 359.40333,637.54207 360.04233,636.81907 C 360.68133,636.09607 361.40233,635.46007 362.20933,634.90307 C 363.01633,634.35007 363.83933,633.87207 364.67933,633.46707 C 363.94133,633.06307 363.22633,632.61007 362.53733,632.10607 C 361.84833,631.60207 361.24333,631.02207 360.72333,630.36807 C 360.20333,629.71407 359.77533,628.98907 359.43933,628.20207 C 359.10233,627.41107 358.93433,626.52807 358.93433,625.55607 C 358.93433,624.27907 359.16933,623.13607 359.63933,622.12807 C 360.11133,621.12007 360.76533,620.26307 361.60633,619.55807 C 362.44733,618.85107 363.43733,618.31407 364.58033,617.94507 C 365.71933,617.57607 366.92933,617.39107 368.20533,617.39107 L 368.20533,617.39107 z "
   id="Nr._8" /><path
   d="M 287.32533,392.67007 C 295.12833,392.67007 301.38733,403.18007 301.38733,410.98207 L 301.38733,555.42007 C 301.38733,563.22307 307.64733,569.48107 315.44933,569.48107 L 353.44933,569.48107 C 361.25233,569.48107 367.57433,575.74307 367.57433,583.54307 C 367.57433,575.74007 373.89633,569.48107 381.69933,569.48107 L 419.69933,569.48107 C 427.50233,569.48107 433.76133,563.22307 433.76133,555.42007 L 433.76133,410.98207 C 433.76133,403.17807 440.02233,392.67007 447.82333,392.67007 L 367.57333,392.67007 L 287.32533,392.67007 L 287.32533,392.67007 z "
   style="fill:#f90101;stroke:black;stroke-width:2"
   id="CoA_Nr._8" /><path
   d="M 183.69533,621.22107 C 182.98833,621.22107 182.37533,621.23907 181.85533,621.27207 C 181.33533,621.30507 180.87333,621.41707 180.46933,621.60007 C 180.06633,621.78607 179.69633,622.04507 179.36033,622.38107 C 179.02433,622.71707 178.67133,623.18807 178.30133,623.79107 C 178.13433,623.85707 177.94133,623.86707 177.72333,623.81607 C 177.50533,623.76507 177.34533,623.62307 177.24333,623.38807 C 177.51233,622.71607 177.80533,621.88407 178.12533,620.89207 C 178.44433,619.90207 178.72133,618.91707 178.95633,617.94507 C 179.76333,618.04707 181.54433,618.09507 184.29933,618.09507 L 192.81733,618.09507 C 193.52333,618.09507 194.22833,618.09507 194.93333,618.09507 C 195.67233,618.09507 196.36133,618.08507 196.99933,618.07007 C 197.63833,618.05207 198.18433,618.03707 198.63733,618.01907 C 199.09033,618.00307 199.40133,617.97807 199.56833,617.94507 C 199.80433,618.01107 199.92233,618.16407 199.92233,618.39807 C 199.21633,619.47207 198.48533,620.69907 197.73033,622.07807 C 196.97433,623.45507 196.12633,625.10107 195.18533,627.01607 L 182.33333,652.87107 C 181.93033,652.93707 181.56033,652.88107 181.22433,652.69507 C 180.88833,652.50907 180.68633,652.25007 180.62033,651.91407 L 194.88333,623.08407 C 195.25333,622.31307 195.36333,621.80907 195.21233,621.57407 C 195.06133,621.33807 194.58233,621.21907 193.77433,621.21907 L 183.69533,621.21907 L 183.69533,621.22107 L 183.69533,621.22107 z "
   id="Nr._7" /><path
   d="M 119.64533,394.73207 L 119.64533,436.35707 C 119.64533,487.61807 152.32633,555.70807 188.58333,579.10607 C 226.68133,556.62707 257.52133,488.51607 257.52133,436.35607 L 257.52133,394.73107 C 246.25133,402.19307 234.97833,405.27707 223.70933,405.04307 C 211.99933,404.80307 200.29433,400.98107 188.58433,394.73107 C 176.87433,400.98107 165.16933,404.80307 153.45933,405.04307 C 142.18833,405.27707 130.91533,402.19307 119.64533,394.73207 z "
   style="fill:#f90101;stroke:black;stroke-width:2"
   id="CoA_Nr._7" /><path
   d="M 986.29633,284.11607 C 986.29633,283.04007 986.39933,281.86407 986.59933,280.58807 C 986.80033,279.31207 987.15433,277.98407 987.65933,276.60707 C 988.16333,275.22907 988.85033,273.83607 989.72433,272.42307 C 990.59733,271.01207 991.70633,269.65107 993.05033,268.34007 C 994.36233,267.06407 995.70433,265.98807 997.08233,265.11407 C 998.46033,264.24107 999.79533,263.52707 1001.0893,262.97207 C 1002.3834,262.41807 1003.5834,262.00607 1004.6934,261.73807 C 1005.8014,261.46907 1006.7434,261.28507 1007.5154,261.18307 C 1007.6844,261.25007 1007.7914,261.41007 1007.8424,261.66207 C 1007.8934,261.91407 1007.8504,262.10707 1007.7164,262.24107 C 1006.9104,262.51107 1006.0454,262.82207 1005.1204,263.17507 C 1004.1964,263.52807 1003.2464,263.94707 1002.2724,264.43507 C 1001.2973,264.92307 1000.3243,265.51007 999.34933,266.19907 C 998.37333,266.88807 997.43333,267.72007 996.52733,268.69407 C 994.37633,270.97907 992.88133,273.44007 992.04133,276.07807 C 991.20133,278.71607 990.78133,281.34507 990.78133,283.96507 C 990.78133,285.44407 990.91633,286.85507 991.18333,288.19907 C 991.45333,289.54307 991.86433,290.73607 992.41833,291.77707 C 992.97233,292.81807 993.69433,293.65007 994.58533,294.27207 C 995.47633,294.89407 996.54233,295.20507 997.78533,295.20507 C 998.72533,295.20507 999.54933,295.00307 1000.2553,294.60007 C 1000.9613,294.19707 1001.5583,293.65107 1002.0444,292.96207 C 1002.5314,292.27407 1002.8944,291.45907 1003.1284,290.51807 C 1003.3634,289.57807 1003.4824,288.56907 1003.4824,287.49407 C 1003.4824,286.42007 1003.3564,285.37807 1003.1044,284.37007 C 1002.8514,283.36207 1002.4734,282.46307 1001.9684,281.67307 C 1001.4643,280.88307 1000.8263,280.25307 1000.0543,279.78307 C 999.28233,279.31207 998.35833,279.07807 997.28333,279.07807 C 996.77933,279.07807 996.33433,279.12807 995.94833,279.22907 C 995.56033,279.33007 995.23333,279.41407 994.96533,279.48007 C 994.62933,279.31207 994.57833,279.04307 994.81633,278.67407 C 995.55333,278.20307 996.31833,277.83307 997.10833,277.56507 C 997.89833,277.29707 998.78133,277.16307 999.75433,277.16307 C 1000.9633,277.16307 1002.0654,277.39007 1003.0554,277.84407 C 1004.0464,278.29707 1004.8874,278.92707 1005.5764,279.73307 C 1006.2644,280.54007 1006.8024,281.49707 1007.1884,282.60607 C 1007.5754,283.71407 1007.7684,284.90807 1007.7684,286.18407 C 1007.7684,287.66307 1007.5064,289.04007 1006.9874,290.31707 C 1006.4664,291.59307 1005.7444,292.71107 1004.8204,293.66907 C 1003.8964,294.62707 1002.7794,295.37407 1001.4673,295.91207 C 1000.1563,296.45007 998.71133,296.71907 997.13233,296.71907 C 995.28433,296.71907 993.68033,296.38307 992.32033,295.71107 C 990.95933,295.03907 989.83433,294.13207 988.94333,292.98907 C 988.05233,291.84607 987.38933,290.51007 986.95333,288.98207 C 986.51533,287.44907 986.29633,285.82807 986.29633,284.11607 L 986.29633,284.11607 z "
   id="Nr._6" /><path
   d="M 973.70433,40.797074 C 962.58533,40.797074 954.15133,63.277074 935.32933,65.735074 C 935.32933,127.33107 965.89133,137.59707 965.89133,167.86007 C 965.89133,174.04607 964.64133,175.29507 964.64133,182.23507 C 964.64133,200.19007 975.71533,223.86007 997.07933,223.86007 C 1018.4434,223.86007 1029.5174,200.19007 1029.5174,182.23507 C 1029.5174,175.29507 1028.2674,174.04607 1028.2674,167.86007 C 1028.2674,137.59707 1058.8294,127.33107 1058.8294,65.735074 C 1040.0084,63.278074 1031.5734,40.797074 1020.4544,40.797074 L 997.07933,40.797074 L 973.70433,40.797074 L 973.70433,40.797074 z "
   style="fill:#f90101;stroke:black;stroke-width:1"
   id="CoA_Nr._6b" /><g
   transform="translate(33.33333,24.07407)"
   id="CoA_Nr._6a">
				<path
   d="M 944.485,13.471 L 949.319,24.218 L 944.485,31.096 C 956.697,29.364 969.842,29.403 981.12,31.096 L 978.001,24.374 L 981.12,13.471 C 969.688,15.428 956.697,15.516 944.485,13.471 z "
   style="fill:#f3f1ee;stroke:black;stroke-miterlimit:1"
   id="rect9954" />
				<path
   d="M 902.548,41.369 C 921.612,41.369 929.413,18.604 940.904,18.604 C 945.741,18.604 946.829,21.409 946.829,24.529 C 944.182,25.483 942.1,25.657 939.033,24.217 C 939.487,28.017 942.466,31.077 946.516,31.077 C 950.301,31.077 954.781,28.208 954.781,22.657 C 954.781,18.025 950.349,13.458 942.619,13.458 C 925.118,13.458 922.396,32.678 902.548,41.369 z "
   style="fill:#f3f1ee;stroke:black;stroke-miterlimit:1"
   id="path9950" />
				<path
   d="M 1024.944,41.369 C 1005.88,41.369 998.079,18.604 986.589,18.604 C 981.751,18.604 980.663,21.409 980.663,24.529 C 983.309,25.483 985.392,25.657 988.459,24.217 C 988.006,28.017 985.026,31.077 980.977,31.077 C 977.192,31.077 972.712,28.208 972.712,22.657 C 972.712,18.025 977.144,13.458 984.873,13.458 C 1002.374,13.458 1005.096,32.678 1024.944,41.369 z "
   style="fill:#f3f1ee;stroke:black;stroke-miterlimit:1"
   id="path9952" />
			</g><path
   d="M 812.52033,266.12207 C 812.65633,265.71907 812.80533,265.40707 812.97333,265.18807 C 813.14133,264.97007 813.42633,264.82807 813.83033,264.76107 L 825.97633,263.04707 C 826.14533,263.01307 826.26133,263.05507 826.33033,263.17207 C 826.39733,263.29007 826.43133,263.40007 826.43133,263.50107 C 826.26333,264.07207 826.01133,264.64307 825.67533,265.21407 C 825.33833,265.78507 824.98733,266.25607 824.61633,266.62507 L 815.09133,267.98507 C 814.52133,268.05307 814.13433,268.17907 813.93233,268.36407 C 813.73233,268.54907 813.54633,268.87607 813.37733,269.34607 L 812.47033,272.37007 C 812.36933,272.67207 812.36933,272.88207 812.47033,273.00007 C 812.57233,273.11707 812.80633,273.21007 813.17633,273.27707 L 814.23633,273.37707 C 815.81533,273.54607 817.39433,273.84807 818.97233,274.28507 C 820.55133,274.72207 821.98033,275.37707 823.25533,276.25007 C 824.53133,277.12407 825.57333,278.22507 826.38033,279.55207 C 827.18833,280.87907 827.58933,282.50007 827.58933,284.41407 C 827.58933,286.59907 827.02733,288.59807 825.90133,290.41207 C 824.77533,292.22607 823.33133,293.78907 821.56733,295.10007 C 819.80133,296.41107 817.86233,297.44407 815.74533,298.20007 C 813.62833,298.95707 811.56133,299.36807 809.54633,299.43407 C 809.27733,299.33307 809.12633,299.09007 809.09333,298.70407 C 809.06033,298.31807 809.16033,298.04007 809.39733,297.87207 C 811.34533,297.77107 813.19433,297.40207 814.94133,296.76407 C 816.68833,296.12607 818.22333,295.27807 819.55133,294.22007 C 820.87833,293.16107 821.92833,291.90907 822.70033,290.46407 C 823.47133,289.01907 823.85933,287.44007 823.85933,285.72607 C 823.85933,283.94707 823.42933,282.47707 822.57433,281.31807 C 821.71833,280.15907 820.62633,279.23407 819.29933,278.54607 C 817.97233,277.85707 816.51133,277.37807 814.91533,277.10907 C 813.31833,276.84007 811.78133,276.68907 810.30333,276.65507 C 809.93333,276.65507 809.72333,276.53807 809.67233,276.30207 C 809.62233,276.06707 809.68133,275.66307 809.84933,275.09207 L 812.52033,266.12207 z "
   id="Nr._5" /><rect
   width="137.94"
   height="137.94099"
   x="749.36639"
   y="54.294075"
   style="fill:#f90101;stroke:black;stroke-width:2"
   id="CoA_Nr._5" /><path
   d="M 629.03633,286.48407 C 628.56533,286.48407 628.33033,286.19907 628.33033,285.62807 C 628.33033,285.32507 628.38933,285.05707 628.50733,284.82107 C 628.62533,284.58507 628.86833,284.21707 629.23733,283.71307 L 645.41633,261.13407 C 645.58533,260.89907 645.75333,260.72207 645.92033,260.60507 C 646.08833,260.48707 646.30633,260.42807 646.57433,260.42807 L 647.43033,260.42807 C 647.93533,260.42807 648.18733,260.56307 648.18833,260.83107 C 648.18733,260.96507 648.10333,261.14907 647.93533,261.38507 L 631.90933,283.56107 C 631.60633,283.96507 631.59733,284.20107 631.88433,284.26807 C 632.16933,284.33507 632.64933,284.36907 633.32133,284.36907 L 641.13333,284.36907 C 641.73833,284.36907 642.12533,284.29407 642.29333,284.14207 C 642.46133,283.99007 642.54533,283.62907 642.54533,283.05807 L 642.54533,273.78407 C 642.54533,273.61607 642.57033,273.43907 642.62133,273.25507 C 642.67133,273.07007 642.79733,272.91107 642.99933,272.77607 C 643.30233,272.57507 643.70533,272.38907 644.20933,272.22207 C 644.71333,272.05407 645.16633,271.95307 645.56933,271.91907 C 645.93833,271.88507 646.14733,272.01107 646.19933,272.29707 C 646.25033,272.58207 646.27533,272.97807 646.27533,273.48207 L 646.27533,283.21007 C 646.27533,283.68107 646.33433,283.99107 646.45133,284.14307 C 646.56833,284.29507 646.84633,284.37007 647.28233,284.37007 L 650.50833,284.37007 C 650.74433,284.53707 650.86233,284.87307 650.86233,285.37807 C 650.86233,285.88107 650.74533,286.25107 650.50833,286.48607 L 647.78733,286.48607 C 647.14833,286.48607 646.73633,286.53707 646.55233,286.63707 C 646.36833,286.73707 646.27733,287.05707 646.27733,287.59507 L 646.27733,289.86207 C 646.27733,290.87107 646.29433,291.67607 646.32733,292.28207 C 646.36033,292.88607 646.44433,293.36607 646.57833,293.71907 C 646.71333,294.07207 646.93233,294.31607 647.23333,294.44907 C 647.53633,294.58407 647.93933,294.68407 648.44433,294.75207 L 649.75533,294.90307 C 649.92333,295.07107 649.99033,295.30607 649.95633,295.60907 C 649.92233,295.91107 649.82133,296.09507 649.65333,296.16307 C 648.74633,296.09607 647.83933,296.05507 646.93033,296.03707 C 646.02433,296.02007 645.18333,296.01207 644.40933,296.01207 C 643.50333,296.01207 642.50433,296.02107 641.41233,296.03707 C 640.31933,296.05507 639.21933,296.09607 638.10933,296.16307 C 637.94233,296.09607 637.84033,295.91107 637.80633,295.60907 C 637.77433,295.30607 637.83933,295.07107 638.00833,294.90307 L 640.27633,294.75207 C 640.81433,294.71907 641.23533,294.62607 641.53733,294.47507 C 641.83933,294.32407 642.06533,294.07207 642.21733,293.71907 C 642.36933,293.36607 642.46133,292.87907 642.49433,292.25807 C 642.52833,291.63607 642.54533,290.83807 642.54533,289.86207 L 642.54533,287.74607 C 642.54533,287.14207 642.47033,286.78007 642.31833,286.66307 C 642.16733,286.54507 641.75633,286.48607 641.08433,286.48607 L 629.03733,286.48607 L 629.03733,286.48407 L 629.03633,286.48407 z "
   id="Nr._4" /><polygon
   points="531.962,99.189 606.262,1.65 680.562,99.189 606.262,196.729 531.962,99.189 "
   transform="translate(33.33333,24.07407)"
   style="fill:#f90101;stroke:black;stroke-width:2"
   id="CoA_Nr._4" /><path
   d="M 455.63733,298.83107 C 455.06633,298.83107 454.48633,298.78107 453.89933,298.68007 C 453.31033,298.57907 452.77433,298.40307 452.28633,298.15107 C 451.79933,297.90007 451.40433,297.58107 451.10033,297.19407 C 450.79733,296.80707 450.64733,296.31207 450.64733,295.70707 C 450.64733,295.20307 450.82433,294.75007 451.17633,294.34707 C 451.53033,293.94407 452.00833,293.74207 452.61333,293.74207 C 453.21833,293.74207 453.70633,293.94407 454.07533,294.34707 C 454.44533,294.75007 454.76333,295.15407 455.03333,295.55707 C 455.36933,296.02807 455.72133,296.39707 456.09233,296.66507 C 456.46333,296.93307 456.99933,297.06807 457.70433,297.06807 C 458.51133,297.06807 459.43333,296.81607 460.47533,296.31207 C 461.51633,295.80807 462.49933,295.11107 463.42333,294.22007 C 464.34733,293.32907 465.12833,292.28707 465.76633,291.09507 C 466.40633,289.90307 466.72433,288.60107 466.72433,287.19007 C 466.72433,286.08107 466.58933,285.03107 466.32233,284.04007 C 466.05333,283.04907 465.65033,282.17507 465.11333,281.41907 C 464.57633,280.66307 463.90433,280.06607 463.09633,279.63007 C 462.28933,279.19207 461.33133,278.97507 460.22233,278.97507 C 458.98133,278.97507 457.90633,279.22707 456.99733,279.73107 C 456.09133,280.23507 455.35133,280.80607 454.77833,281.44507 C 454.37633,281.37907 454.04833,281.18507 453.79733,280.86607 C 453.54533,280.54707 453.50333,280.15107 453.67133,279.68107 C 454.14133,279.48007 454.73733,279.21107 455.45933,278.87407 C 456.18233,278.53807 456.92133,278.17707 457.67733,277.79107 C 458.43433,277.40407 459.17333,276.99307 459.89633,276.55707 C 460.61933,276.11907 461.23133,275.70007 461.73533,275.29507 C 462.30633,274.82507 462.89533,274.20407 463.50133,273.43107 C 464.10533,272.65907 464.40733,271.66707 464.40733,270.45807 C 464.40733,269.11307 464.00433,268.05507 463.19733,267.28207 C 462.39033,266.51007 461.41733,266.12407 460.27433,266.12307 C 458.76233,266.12407 457.44433,266.54307 456.31833,267.38307 C 455.19233,268.22307 454.24333,269.28107 453.46833,270.55807 C 453.19933,270.62607 452.95633,270.59207 452.73933,270.45807 C 452.52033,270.32307 452.41233,270.12107 452.41233,269.85207 C 452.81633,268.97907 453.32933,268.16407 453.95033,267.40907 C 454.57133,266.65307 455.28533,266.00607 456.09233,265.46907 C 456.90033,264.93107 457.76433,264.51107 458.68833,264.20807 C 459.61333,263.90507 460.56133,263.75407 461.53633,263.75407 C 463.62033,263.75407 465.30733,264.26707 466.60033,265.29207 C 467.89433,266.31607 468.54033,267.73607 468.54033,269.55207 C 468.54033,270.05507 468.47333,270.56807 468.33933,271.08807 C 468.20433,271.60907 467.94433,272.13007 467.55833,272.65007 C 467.17133,273.17107 466.62533,273.70907 465.91933,274.26307 C 465.21433,274.81707 464.29033,275.39707 463.14833,276.00107 C 462.91433,276.43807 463.11533,276.69007 463.75233,276.75807 C 464.69333,276.82407 465.60933,277.04307 466.49933,277.41207 C 467.39033,277.78207 468.17033,278.29407 468.84333,278.94907 C 469.51533,279.60407 470.05333,280.39407 470.45633,281.31807 C 470.85933,282.24207 471.06033,283.30807 471.06033,284.51807 C 471.06033,286.33207 470.63933,288.10507 469.79933,289.83407 C 468.95933,291.56407 467.74933,293.11907 466.17033,294.49707 C 465.23133,295.30307 464.27333,295.98307 463.29733,296.53807 C 462.32233,297.09307 461.36533,297.53807 460.42433,297.87407 C 459.48533,298.21007 458.60333,298.45307 457.77833,298.60307 C 456.95433,298.75707 456.24133,298.83107 455.63733,298.83107 L 455.63733,298.83107 z "
   id="Nr._3" /><ellipse
   cx="427.51999"
   cy="102.829"
   rx="68.363998"
   ry="93.362999"
   transform="translate(33.33333,24.07407)"
   style="fill:#f90101;stroke:black;stroke-width:2"
   id="CoA_Nr._3" /><path
   d="M 285.68933,292.88507 C 288.00733,292.88507 289.58633,292.51507 290.42633,291.77607 C 290.89733,291.34007 291.24133,290.95507 291.46033,290.61807 C 291.67833,290.28207 291.87133,289.97907 292.03833,289.71107 C 292.20633,289.64407 292.40833,289.63507 292.64333,289.68607 C 292.87833,289.73707 293.04633,289.84607 293.14733,290.01407 C 292.81233,291.29107 292.43433,292.50907 292.01433,293.66807 C 291.59433,294.82707 291.19933,295.65807 290.82933,296.16207 C 288.74633,296.06107 286.57933,296.01107 284.32833,296.01107 L 277.02033,296.01107 C 275.60833,296.01107 274.46533,296.02007 273.59233,296.03607 C 272.71833,296.05407 271.99633,296.09507 271.42533,296.16207 C 271.35833,296.12907 271.28333,296.06207 271.19933,295.96107 C 271.11533,295.86007 271.07333,295.70907 271.07333,295.50707 C 271.07333,295.37207 271.25833,295.18807 271.62733,294.95307 C 272.19833,294.58307 272.75333,294.17907 273.29133,293.74207 C 273.82933,293.30507 274.38333,292.80907 274.95533,292.25607 C 275.52633,291.70107 276.16433,291.05507 276.87033,290.31607 C 277.57633,289.57707 278.39933,288.70307 279.34033,287.69507 C 280.18033,286.78907 281.02833,285.81507 281.88533,284.77307 C 282.74233,283.73107 283.51433,282.62207 284.20433,281.44607 C 284.89333,280.27007 285.45633,279.04407 285.89233,277.76707 C 286.32933,276.49007 286.54733,275.17907 286.54733,273.83507 C 286.54733,271.51707 286.00933,269.71107 284.93533,268.41707 C 283.86033,267.12307 282.29733,266.47707 280.24733,266.47707 C 278.73433,266.47707 277.43233,266.93907 276.34033,267.86307 C 275.24833,268.78707 274.36633,270.00607 273.69433,271.51707 C 273.45933,271.65207 273.19933,271.66007 272.91333,271.54207 C 272.62733,271.42407 272.48433,271.19707 272.48433,270.86107 C 273.29133,268.64307 274.61033,266.90507 276.44233,265.64407 C 278.27333,264.38407 280.33133,263.75307 282.61633,263.75307 C 283.85933,263.75307 284.99233,263.95507 286.01733,264.35707 C 287.04233,264.76007 287.92433,265.32407 288.66333,266.04507 C 289.40233,266.76807 289.96533,267.63307 290.35133,268.64107 C 290.73833,269.64907 290.93133,270.75807 290.93133,271.96807 C 290.93133,273.54707 290.52833,275.21907 289.72233,276.98307 C 288.91533,278.74707 287.52033,280.77107 285.53733,283.05607 L 282.46433,286.58307 C 281.45533,287.79307 280.64933,288.75907 280.04433,289.48007 C 279.43933,290.20207 278.97833,290.77307 278.65833,291.19307 C 278.33833,291.61307 278.12833,291.90707 278.02833,292.07607 C 277.92733,292.24407 277.87733,292.36107 277.87733,292.42807 C 277.87733,292.59607 277.96933,292.71407 278.15433,292.78207 C 278.33933,292.84807 278.76733,292.88307 279.43833,292.88307 L 285.68933,292.88307 L 285.68933,292.88507 z "
   id="Nr._2" /><path
   d="M 213.11033,39.883074 L 213.11033,202.60807 C 213.11033,210.41207 219.36933,216.67007 227.17233,216.67007 L 268.04733,216.67007 C 275.85033,216.67007 282.10933,222.93007 282.10933,230.73207 C 282.10933,222.92907 288.36833,216.67007 296.17133,216.67007 L 337.04633,216.67007 C 344.84933,216.67007 351.10833,210.41107 351.10833,202.60807 L 351.10833,39.883074 L 213.11033,39.883074 z "
   style="fill:#f90101;stroke:black;stroke-width:2"
   id="CoA_Nr._2" /><path
   d="M 98.957334,272.72307 C 98.957334,271.88307 98.940334,271.16907 98.906334,270.58107 C 98.872334,269.99307 98.771334,269.51507 98.604334,269.14407 C 98.437334,268.77507 98.193334,268.50607 97.874334,268.33807 C 97.555334,268.17007 97.109334,268.05307 96.538334,267.98407 L 94.119334,267.78307 C 93.918334,267.68207 93.809334,267.49807 93.792334,267.22807 C 93.775334,266.95907 93.867334,266.77407 94.068334,266.67307 C 96.186334,266.30507 97.933334,265.83407 99.311334,265.26207 C 100.68833,264.69107 101.71333,264.18707 102.38533,263.74907 C 102.62133,263.74907 102.78933,263.83407 102.88933,264.00207 C 102.82233,264.47307 102.77133,265.27807 102.73833,266.42107 C 102.70533,267.56407 102.68833,268.85707 102.68833,270.30207 L 102.68833,289.85707 C 102.68833,290.83307 102.70533,291.63007 102.73833,292.25307 C 102.77133,292.87407 102.85533,293.36107 102.98933,293.71407 C 103.12333,294.06707 103.34233,294.31807 103.64433,294.47007 C 103.94733,294.62107 104.35033,294.71407 104.85433,294.74707 L 106.97133,294.89807 C 107.13933,295.06607 107.20633,295.30107 107.17233,295.60407 C 107.13833,295.90607 107.03833,296.09007 106.87133,296.15807 C 105.89633,296.09107 104.87133,296.05007 103.79533,296.03207 C 102.72033,296.01507 101.74633,296.00707 100.87233,296.00707 C 99.964334,296.00707 98.973334,296.01607 97.898334,296.03207 C 96.823334,296.05007 95.798334,296.09107 94.824334,296.15807 C 94.656334,296.09107 94.555334,295.90607 94.522334,295.60407 C 94.489334,295.30107 94.556334,295.06607 94.723334,294.89807 L 96.790334,294.74707 C 97.327334,294.71407 97.739334,294.62107 98.024334,294.47007 C 98.309334,294.31907 98.519334,294.06707 98.654334,293.71407 C 98.788334,293.36107 98.872334,292.87407 98.906334,292.25307 C 98.940334,291.63107 98.957334,290.83307 98.957334,289.85707 L 98.957334,272.72307 L 98.957334,272.72307 z "
   id="Nr._1" /><path
   d="M 34.333334,40.237074 L 34.333334,111.48707 C 34.333334,157.13007 76.281334,203.05107 103.33333,224.61207 C 130.38533,203.05107 172.33333,157.13007 172.33333,111.48707 L 172.33333,40.237074 L 34.333334,40.237074 L 34.333334,40.237074 z "
   style="fill:#f90101;stroke:black;stroke-width:2"
   id="CoA_Nr._1" />
	</svg>