<?xml version="1.0" encoding="UTF-8" standalone="no"?>
<!-- Created with Inkscape (http://www.inkscape.org/) -->

<svg
   xmlns:dc="http://purl.org/dc/elements/1.1/"
   xmlns:cc="http://creativecommons.org/ns#"
   xmlns:rdf="http://www.w3.org/1999/02/22-rdf-syntax-ns#"
   xmlns:svg="http://www.w3.org/2000/svg"
   xmlns="http://www.w3.org/2000/svg"
   xmlns:xlink="http://www.w3.org/1999/xlink"
   xmlns:sodipodi="http://sodipodi.sourceforge.net/DTD/sodipodi-0.dtd"
   xmlns:inkscape="http://www.inkscape.org/namespaces/inkscape"
   version="1.0"
   width="600"
   height="660"
   id="svg2"
   inkscape:version="0.48.4 r9939"
   sodipodi:docname="Blason_France_moderne.svg"
   sodipodi:version="0.32"
   inkscape:output_extension="org.inkscape.output.svg.inkscape">
  <metadata
     id="metadata44">
    <rdf:RDF>
      <cc:Work
         rdf:about="">
        <dc:format>image/svg+xml</dc:format>
        <dc:type
           rdf:resource="http://purl.org/dc/dcmitype/StillImage" />
        <dc:title />
      </cc:Work>
    </rdf:RDF>
  </metadata>
  <sodipodi:namedview
     pagecolor="#ffffff"
     bordercolor="#666666"
     borderopacity="1"
     objecttolerance="10"
     gridtolerance="10"
     guidetolerance="10"
     inkscape:pageopacity="0"
     inkscape:pageshadow="2"
     inkscape:window-width="1366"
     inkscape:window-height="745"
     id="namedview42"
     showgrid="false"
     inkscape:zoom="0.38636347"
     inkscape:cx="1119.6429"
     inkscape:cy="121.00436"
     inkscape:window-x="-8"
     inkscape:window-y="-8"
     inkscape:window-maximized="1"
     inkscape:current-layer="layer3"
     showguides="true"
     inkscape:guide-bbox="true" />
  <desc
     id="desc4">Flag of Canton of Valais (Wallis)</desc>
  <defs
     id="defs6">
    <linearGradient
       id="linearGradient2893-7-8-7-2">
      <stop
         id="stop2895-4-2-1-1"
         style="stop-color:#ffffff;stop-opacity:0.31372601"
         offset="0" />
      <stop
         id="stop2897-0-4-1-6"
         style="stop-color:#ffffff;stop-opacity:0.25097999"
         offset="0.19" />
      <stop
         id="stop2901-9-5-5-8"
         style="stop-color:#6b6b6b;stop-opacity:0.12548999"
         offset="0.60000002" />
      <stop
         id="stop2899-4-5-2-5"
         style="stop-color:#000000;stop-opacity:0.12548999"
         offset="1" />
    </linearGradient>
    <radialGradient
       inkscape:collect="always"
       xlink:href="#linearGradient2893-7-8-7-2"
       id="radialGradient3387"
       gradientUnits="userSpaceOnUse"
       gradientTransform="matrix(1.35322,0,0,1.34893,-77.6293,-81.746896)"
       cx="221.44487"
       cy="226.33101"
       fx="221.44487"
       fy="226.33101"
       r="300" />
  </defs>
  <g
     id="layer4" />
  <g
     id="g17874"
     style="display:inline"
     transform="matrix(0.9445622,0,0,0.9445622,13.070337,26.518795)" />
  <g
     id="g17900"
     transform="matrix(0.9445622,0,0,0.9445622,13.070337,26.518795)" />
  <g
     id="g17906"
     transform="matrix(0.9445622,0,0,0.9445622,13.070337,26.518795)" />
  <g
     inkscape:groupmode="layer"
     id="layer6"
     inkscape:label="Champ"
     style="display:inline"
     sodipodi:insensitive="true">
    <path
       inkscape:connector-curvature="0"
       style="fill:#2b5df2;fill-opacity:1;fill-rule:evenodd;stroke:none"
       id="path2855-1"
       d="m 299.48275,657.36544 c 0,0 298.50001,-112.32031 298.50001,-397.77183 0,-285.451519 0,-258.5516893 0,-258.5516893 l -597.0000125,0 0,258.5516893 c 0,285.45152 298.5000025,397.77183 298.5000025,397.77183 z" />
  </g>
  <g
     inkscape:groupmode="layer"
     id="layer3"
     inkscape:label="Charges"
     style="display:inline"
     sodipodi:insensitive="true">
    <g
       id="g3267"
       transform="translate(-142.8377,-267.4446)"
       style="fill:#fcef3c">
      <path
         style="fill:#fcef3c;fill-opacity:1;stroke:#000000;stroke-width:2.83368659;stroke-linecap:round;stroke-linejoin:round;stroke-miterlimit:4;stroke-opacity:1;stroke-dasharray:none;display:inline"
         d="m 154.03125,24.25 -1.5625,2 c -17.55513,19.04745 -30.98436,39.13823 -36.34375,67.625 -3.60832,23.08471 1.43493,42.81196 10.8125,64.75 8.0365,21.7027 17.76527,43.65744 15.875,69.125 L 166,227.96875 c -1.89027,-25.46756 7.8385,-47.39105 15.875,-69.09375 9.37757,-21.93804 14.42082,-41.66529 10.8125,-64.75 C 187.32811,65.63823 173.93013,45.5162 156.375,26.46875 z M 70.5,128.59375 c -15.09955,0.27571 -29.18473,9.1873 -35.3125,25.15625 -6.58077,33.65959 30.23824,67.88147 55.21875,69.1875 -3.43195,-9.0785 -5.44487,-16.7847 -6.9375,-25.1875 0.40487,-24.50169 33.60548,18.19667 35.96875,25.78125 0.55637,1.52726 0.41,2.81018 1.03125,4.3125 L 138.0625,227.75 c -1.72889,-31.17588 -13.71314,-63.04136 -33.75,-83.40625 -9.71487,-10.94504 -22.06841,-15.96444 -33.8125,-15.75 z m 167.84375,0.25 c -11.74409,-0.21444 -24.12888,4.77371 -33.84375,15.71875 -20.03686,20.36489 -32.02111,52.23037 -33.75,83.40625 L 188.375,228 c 0.58878,-1.473 0.45219,-2.74624 1,-4.25 2.36327,-7.58458 35.59513,-50.28294 36,-25.78125 -1.49263,8.4028 -3.5368,16.109 -6.96875,25.1875 24.98051,-1.30603 61.83077,-35.52791 55.25,-69.1875 -6.12777,-15.96895 -20.21295,-24.84929 -35.3125,-25.125 z M 100.6875,228 l 0,16.875 29.71875,0 c 0.0219,-0.0601 0.0412,-0.12788 0.0625,-0.1875 25.72893,0.19728 51.45808,0.1875 77.1875,0.1875 l 0,-16.875 z m 29.71875,16.875 c -4.80859,13.21317 -23.83573,37.15368 -33.96875,44 -2.63999,1.78372 12.92252,0.0137 19.4375,-2.53125 8.96114,-3.50054 20.61683,-13.58805 20.34375,-10.1875 -0.85709,13.43025 5.71382,43.37856 15.625,55.0625 l 1.09375,1.15625 0.65625,0.21875 1.125,-1.15625 c 9.91118,-11.68394 16.48209,-41.63225 15.625,-55.0625 -0.27308,-3.3703 11.97939,6.41941 20.34375,10.1875 7.76883,3.49981 22.07749,4.31497 19.4375,2.53125 -10.17904,-6.87751 -29.33113,-31.01282 -34.03125,-44.1875 -15.229,-0.0681 -30.45837,-0.0312 -45.6875,-0.0312 z"
         transform="translate(139.42594,283.20931)"
         id="path3935"
         inkscape:connector-curvature="0"
         sodipodi:nodetypes="ccccccccccscccccccsscccccccsccccccccssccccccsscc" />
    </g>
    <g
       style="fill:#fcef3c"
       transform="translate(157.75066,-266.97401)"
       id="g3947">
      <path
         sodipodi:nodetypes="ccccccccccscccccccsscccccccsccccccccssccccccsscc"
         inkscape:connector-curvature="0"
         id="path3949"
         transform="translate(139.42594,283.20931)"
         d="m 154.03125,24.25 -1.5625,2 c -17.55513,19.04745 -30.98436,39.13823 -36.34375,67.625 -3.60832,23.08471 1.43493,42.81196 10.8125,64.75 8.0365,21.7027 17.76527,43.65744 15.875,69.125 L 166,227.96875 c -1.89027,-25.46756 7.8385,-47.39105 15.875,-69.09375 9.37757,-21.93804 14.42082,-41.66529 10.8125,-64.75 C 187.32811,65.63823 173.93013,45.5162 156.375,26.46875 z M 70.5,128.59375 c -15.09955,0.27571 -29.18473,9.1873 -35.3125,25.15625 -6.58077,33.65959 30.23824,67.88147 55.21875,69.1875 -3.43195,-9.0785 -5.44487,-16.7847 -6.9375,-25.1875 0.40487,-24.50169 33.60548,18.19667 35.96875,25.78125 0.55637,1.52726 0.41,2.81018 1.03125,4.3125 L 138.0625,227.75 c -1.72889,-31.17588 -13.71314,-63.04136 -33.75,-83.40625 -9.71487,-10.94504 -22.06841,-15.96444 -33.8125,-15.75 z m 167.84375,0.25 c -11.74409,-0.21444 -24.12888,4.77371 -33.84375,15.71875 -20.03686,20.36489 -32.02111,52.23037 -33.75,83.40625 L 188.375,228 c 0.58878,-1.473 0.45219,-2.74624 1,-4.25 2.36327,-7.58458 35.59513,-50.28294 36,-25.78125 -1.49263,8.4028 -3.5368,16.109 -6.96875,25.1875 24.98051,-1.30603 61.83077,-35.52791 55.25,-69.1875 -6.12777,-15.96895 -20.21295,-24.84929 -35.3125,-25.125 z M 100.6875,228 l 0,16.875 29.71875,0 c 0.0219,-0.0601 0.0412,-0.12788 0.0625,-0.1875 25.72893,0.19728 51.45808,0.1875 77.1875,0.1875 l 0,-16.875 z m 29.71875,16.875 c -4.80859,13.21317 -23.83573,37.15368 -33.96875,44 -2.63999,1.78372 12.92252,0.0137 19.4375,-2.53125 8.96114,-3.50054 20.61683,-13.58805 20.34375,-10.1875 -0.85709,13.43025 5.71382,43.37856 15.625,55.0625 l 1.09375,1.15625 0.65625,0.21875 1.125,-1.15625 c 9.91118,-11.68394 16.48209,-41.63225 15.625,-55.0625 -0.27308,-3.3703 11.97939,6.41941 20.34375,10.1875 7.76883,3.49981 22.07749,4.31497 19.4375,2.53125 -10.17904,-6.87751 -29.33113,-31.01282 -34.03125,-44.1875 -15.229,-0.0681 -30.45837,-0.0312 -45.6875,-0.0312 z"
         style="fill:#fcef3c;fill-opacity:1;stroke:#000000;stroke-width:2.83368659;stroke-linecap:round;stroke-linejoin:round;stroke-miterlimit:4;stroke-opacity:1;stroke-dasharray:none;display:inline" />
    </g>
    <g
       id="g3951"
       transform="translate(7.4564777,-8.06214)"
       style="fill:#fcef3c">
      <path
         style="fill:#fcef3c;fill-opacity:1;stroke:#000000;stroke-width:2.83368659;stroke-linecap:round;stroke-linejoin:round;stroke-miterlimit:4;stroke-opacity:1;stroke-dasharray:none;display:inline"
         d="m 154.03125,24.25 -1.5625,2 c -17.55513,19.04745 -30.98436,39.13823 -36.34375,67.625 -3.60832,23.08471 1.43493,42.81196 10.8125,64.75 8.0365,21.7027 17.76527,43.65744 15.875,69.125 L 166,227.96875 c -1.89027,-25.46756 7.8385,-47.39105 15.875,-69.09375 9.37757,-21.93804 14.42082,-41.66529 10.8125,-64.75 C 187.32811,65.63823 173.93013,45.5162 156.375,26.46875 z M 70.5,128.59375 c -15.09955,0.27571 -29.18473,9.1873 -35.3125,25.15625 -6.58077,33.65959 30.23824,67.88147 55.21875,69.1875 -3.43195,-9.0785 -5.44487,-16.7847 -6.9375,-25.1875 0.40487,-24.50169 33.60548,18.19667 35.96875,25.78125 0.55637,1.52726 0.41,2.81018 1.03125,4.3125 L 138.0625,227.75 c -1.72889,-31.17588 -13.71314,-63.04136 -33.75,-83.40625 -9.71487,-10.94504 -22.06841,-15.96444 -33.8125,-15.75 z m 167.84375,0.25 c -11.74409,-0.21444 -24.12888,4.77371 -33.84375,15.71875 -20.03686,20.36489 -32.02111,52.23037 -33.75,83.40625 L 188.375,228 c 0.58878,-1.473 0.45219,-2.74624 1,-4.25 2.36327,-7.58458 35.59513,-50.28294 36,-25.78125 -1.49263,8.4028 -3.5368,16.109 -6.96875,25.1875 24.98051,-1.30603 61.83077,-35.52791 55.25,-69.1875 -6.12777,-15.96895 -20.21295,-24.84929 -35.3125,-25.125 z M 100.6875,228 l 0,16.875 29.71875,0 c 0.0219,-0.0601 0.0412,-0.12788 0.0625,-0.1875 25.72893,0.19728 51.45808,0.1875 77.1875,0.1875 l 0,-16.875 z m 29.71875,16.875 c -4.80859,13.21317 -23.83573,37.15368 -33.96875,44 -2.63999,1.78372 12.92252,0.0137 19.4375,-2.53125 8.96114,-3.50054 20.61683,-13.58805 20.34375,-10.1875 -0.85709,13.43025 5.71382,43.37856 15.625,55.0625 l 1.09375,1.15625 0.65625,0.21875 1.125,-1.15625 c 9.91118,-11.68394 16.48209,-41.63225 15.625,-55.0625 -0.27308,-3.3703 11.97939,6.41941 20.34375,10.1875 7.76883,3.49981 22.07749,4.31497 19.4375,2.53125 -10.17904,-6.87751 -29.33113,-31.01282 -34.03125,-44.1875 -15.229,-0.0681 -30.45837,-0.0312 -45.6875,-0.0312 z"
         transform="translate(139.42594,283.20931)"
         id="path3953"
         inkscape:connector-curvature="0"
         sodipodi:nodetypes="ccccccccccscccccccsscccccccsccccccccssccccccsscc" />
    </g>
  </g>
  <g
     inkscape:groupmode="layer"
     id="layer5"
     inkscape:label="Reflet final"
     style="display:inline"
     sodipodi:insensitive="true">
    <path
       inkscape:connector-curvature="0"
       d="m 300.00001,662.5 c 0,0 298.5,-112.32031 298.5,-397.77183 0,-285.4515 0,-262.55168 0,-262.55168 l -597.00001,0 0,262.55168 C 1.5,550.17969 300.00001,662.5 300.00001,662.5 z"
       id="path2875"
       style="fill:url(#radialGradient3387);fill-opacity:1;fill-rule:evenodd;stroke:none"
       sodipodi:nodetypes="csccsc" />
  </g>
  <g
     transform="translate(0,3.4999999e-6)"
     id="layer2" />
  <g
     inkscape:groupmode="layer"
     id="layer7"
     inkscape:label="Contour final"
     style="display:inline"
     sodipodi:insensitive="true">
    <path
       d="m 300.23542,656.8675 c 0,0 298.50001,-112.32031 298.50001,-397.77183 0,-285.451521 0,-258.55169027 0,-258.55169027 l -597.0000113,0 0,258.55169027 c 0,285.45152 298.5000013,397.77183 298.5000013,397.77183 z"
       id="path3128"
       style="fill:none;stroke:#000000;stroke-width:3;stroke-miterlimit:4;stroke-dasharray:none;display:inline"
       inkscape:connector-curvature="0" />
  </g>
</svg>
