<?xml version="1.0" encoding="UTF-8"?>
<svg xmlns="http://www.w3.org/2000/svg" xmlns:xlink="http://www.w3.org/1999/xlink" width="600" height="660">
    <defs>
        <linearGradient id="linearGradient1">
            <stop style="stop-color:#fff;stop-opacity:0.31" offset="0"/>
            <stop style="stop-color:#fff;stop-opacity:0.25" offset="0.19"/>
            <stop style="stop-color:#6b6b6b;stop-opacity:0.125" offset="0.6"/>
            <stop style="stop-color:#000;stop-opacity:0.125" offset="1"/>
        </linearGradient>
        <radialGradient cx="220" cy="220" r="405" id="radialGradient1" xlink:href="#linearGradient1" gradientUnits="userSpaceOnUse"/>
        <path id="shield" d="M1.5,1.5h597v258.5C598.5,546.2 300,658.39 300,658.39 300,658.39 1.5,546.2 1.5,258.5z"/>
        <pattern id="hermine" patternUnits="userSpaceOnUse" x="266" y="-42" width="68" height="248" viewBox="-34 -115 68 248" >
            <g id="g_h" fill="#000" transform="scale(0.42)">
                <path d="M0,-174 C -15,-30 -28,-35 -55,0 L -15,-28 0,0 15,-28 55,0 C 28,-35 15,-30 0,-174z"/>
                <circle cy="-236" r="14"/>
                <circle cy="-204" cx="-32" r="14"/>
                <circle cy="-204" cx="32" r="14"/>
            </g>
            <use xlink:href="#g_h" x="-34" y="125" />
            <use xlink:href="#g_h" x="34" y="125" />
        </pattern> 
    </defs>
    <use id="layer4" xlink:href="#shield" style="fill:#fff"/>
    <use id="layer3" xlink:href="#shield" fill="url(#hermine)"/>
    <use id="layer2" xlink:href="#shield" fill="url(#radialGradient1)"/>
    <use id="layer1" xlink:href="#shield" style="fill:none;stroke:#000;stroke-width:3"/>
</svg>