<?xml version="1.0" encoding="utf-8"?>
<!-- Generator: Adobe Illustrator 19.2.0, SVG Export Plug-In . SVG Version: 6.00 Build 0)  -->
<svg version="1.1"
	 id="svg2" inkscape:export-filename="/Users/olivier/Desktop/Blason Rouge/Blason_Vide_3D.png" inkscape:export-xdpi="144" inkscape:export-ydpi="144" inkscape:output_extension="org.inkscape.output.svg.inkscape" inkscape:version="0.45.1" sodipodi:docbase="E:\DIVERS\H√©raldique" sodipodi:docname="VAIR.svg" sodipodi:version="0.32" xmlns:cc="http://web.resource.org/cc/" xmlns:dc="http://purl.org/dc/elements/1.1/" xmlns:inkscape="http://www.inkscape.org/namespaces/inkscape" xmlns:rdf="http://www.w3.org/1999/02/22-rdf-syntax-ns#" xmlns:sodipodi="http://sodipodi.sourceforge.net/DTD/sodipodi-0.dtd" xmlns:svg="http://www.w3.org/2000/svg"
	 xmlns="http://www.w3.org/2000/svg" xmlns:xlink="http://www.w3.org/1999/xlink" x="0px" y="0px" viewBox="0 0 600 658.5"
	 style="enable-background:new 0 0 600 658.5;" xml:space="preserve">
<style type="text/css">
	.st0{fill:#FFFFFF;}
	.st1{fill:#2B5DF2;stroke:#000000;stroke-width:3;stroke-miterlimit:10;}
	.st2{fill:#2B5DF2;stroke:#000000;stroke-width:3;stroke-linejoin:round;stroke-miterlimit:10;}
	.st3{fill:url(#path2875_1_);stroke:#000000;stroke-width:3.0003;stroke-miterlimit:10;}
</style>
<path id="path2875_5_" class="st0" d="M299.9,658.5c0,0,298.6-112.3,298.6-397.8V2.1H1.5v258.6C1.5,546.2,299.9,658.5,299.9,658.5z"
	/>
<sodipodi:namedview  bordercolor="#666666" borderopacity="1.0" gridtolerance="10.0" guidetolerance="10.0" height="660px" id="base" inkscape:current-layer="layer3" inkscape:cx="507.32521" inkscape:cy="296.46828" inkscape:pageopacity="0.0" inkscape:pageshadow="2" inkscape:window-height="750" inkscape:window-width="1280" inkscape:window-x="-8" inkscape:window-y="-8" inkscape:zoom="0.4" objecttolerance="10.0" pagecolor="#ffffff" showgrid="false">
	</sodipodi:namedview>
<desc  id="desc4">Flag of Canton of Valais (Wallis)</desc>
<g>
	<path id="path2875_2_" class="st0" d="M300,658.5c0,0,298.5-112.3,298.5-397.8V2.1H1.5v258.6C1.5,546.2,300,658.5,300,658.5z"/>
	<g>
		<path class="st1" d="M374.6,539.4l-37.3,37.3v59.7l-9.9,9.9c20.8-10.1,51.3-26.7,84.5-50.5v-19.1L374.6,539.4z"/>
		<path class="st1" d="M561.2,233.5l-37.3,37.3h74.5c0.1-3.3,0.1-6.7,0.1-10V136.4l-37.3,37.3V233.5z"/>
		<polygon class="st2" points="486.6,99.1 449.2,136.4 598.5,136.4 561.2,99.1 561.2,39.4 523.9,2.1 486.6,39.4 		"/>
		<polygon class="st1" points="411.9,233.5 374.6,270.8 523.9,270.8 486.6,233.5 486.6,173.8 449.2,136.4 411.9,173.8 		"/>
		<path class="st1" d="M561.2,308.1l-37.3-37.3l-37.3,37.3v59.7l-37.3,37.3h121c2.8-6.7,5.4-13.5,7.8-20.5l-16.8-16.8V308.1z"/>
		<path class="st1" d="M486.6,442.4l-37.3-37.3l-37.3,37.3v59.7l-37.3,37.3h104.1c7.4-7.4,14.7-15.2,21.8-23.3l-14-14V442.4z"/>
		<polygon class="st1" points="337.3,99.1 300,136.4 449.2,136.4 411.9,99.1 411.9,39.4 374.6,2.1 337.3,39.4 		"/>
		<polygon class="st1" points="262.7,233.5 225.4,270.8 374.6,270.8 337.3,233.5 337.3,173.8 300,136.4 262.7,173.8 		"/>
		<polygon class="st1" points="411.9,308.1 374.6,270.8 337.3,308.1 337.3,367.8 300,405.1 449.2,405.1 411.9,367.8 		"/>
		<polygon class="st1" points="337.3,442.4 300,405.1 262.7,442.4 262.7,502.1 225.4,539.4 374.6,539.4 337.3,502.1 		"/>
		<polygon class="st1" points="188.1,99.1 150.8,136.4 300,136.4 262.7,99.1 262.7,39.4 225.4,2.1 188.1,39.4 		"/>
		<polygon class="st1" points="188.1,233.5 188.1,173.8 150.8,136.4 113.4,173.8 113.4,233.5 76.1,270.8 225.4,270.8 		"/>
		<polygon class="st1" points="262.7,367.8 262.7,308.1 225.4,270.8 188.1,308.1 188.1,367.8 150.8,405.1 300,405.1 		"/>
		<path class="st1" d="M188.1,502.1v-59.7l-37.3-37.3l-37.3,37.3v59.7l-14,14c7.1,8.2,14.4,15.9,21.8,23.3h104.1L188.1,502.1z"/>
		<path class="st1" d="M262.7,636.4v-59.7l-37.3-37.3l-37.3,37.3v19.1c33.2,23.8,63.8,40.4,84.5,50.5L262.7,636.4z"/>
		<polygon class="st2" points="113.4,99.1 113.4,39.4 76.1,2.1 38.8,39.4 38.8,99.1 1.5,136.4 150.8,136.4 		"/>
		<path class="st1" d="M38.8,233.5v-59.7L1.5,136.4v124.3c0,3.4,0.1,6.7,0.1,10.1h74.5L38.8,233.5z"/>
		<path class="st1" d="M113.4,367.8v-59.7l-37.3-37.3l-37.3,37.3v59.7L22,384.6c2.4,7,5,13.8,7.8,20.5h121L113.4,367.8z"/>
	</g>
</g>
<radialGradient id="path2875_1_" cx="-493.6308" cy="989.3777" r="299.8217" gradientTransform="matrix(1.3534 0 0 -1.3491 890.0203 1554.8215)" gradientUnits="userSpaceOnUse">
	<stop  offset="0" style="stop-color:#FFFFFF;stop-opacity:0.3137"/>
	<stop  offset="0.19" style="stop-color:#FFFFFF;stop-opacity:0.251"/>
	<stop  offset="0.6" style="stop-color:#6B6B6B;stop-opacity:0.1255"/>
	<stop  offset="1" style="stop-color:#000000;stop-opacity:0.1255"/>
</radialGradient>
<path id="path2875_3_" class="st3" d="M299.9,658.5c0,0,298.6-112.3,298.6-397.8V2.1H1.5v258.6C1.5,546.2,299.9,658.5,299.9,658.5z"
	/>
</svg>
